<svg class="section--home--hero--image" viewBox="10 0 825 460">
<linearGradient id="H_SVGID_1_" gradientUnits="userSpaceOnUse" x1="433.1878" y1="1.841545e-08" x2="433.1878" y2="507.1449">
	<stop offset="1.470353e-02" style="stop-color:#81B0F9;stop-opacity:0"></stop>
	<stop offset="0.5315" style="stop-color:#B6D4FE;stop-opacity:0.6"></stop>
	<stop offset="1" style="stop-color:#B6D4FE"></stop>
</linearGradient>
<g data-rellax-speed="-1" style="transform: translate3d(0px, 16px, 0px);">

<path fill="url(#H_SVGID_1_)" d="M27,507.1c0,0-26.5-53.6,57-64.2c83.5-10.6,78.1-10.6,70-70.3c-8.1-59.6,3.7-145.5,98-120
	s116.1,39,121.2,10.3c7.9-44,27.5-67.4,58.3-69.2c65.2-3.7,88.9-10.6,67.3-49S437.6,24,599.2,0.6C659.6,0.8,843.4,0,843.4,0
	l-2.7,498.3L27,507.1z"></path>
</g>
<path fill="#2E8A9E" d="M343.9,442.9c5.3-16.2,6.2-49.4-7-60.1c-13.2-10.8-30.2-15.5-46.9-19.1c-16.7-3.6-33.8-6.4-48.9-14.2
	c-30.2-15.6-50-49.8-83.1-57.5c-15.2-3.6-32.6-1.4-44.8-11.1c-6.2-4.9-10-12.2-14.8-18.5c-10.5-13.7-26.5-22.9-43.6-25
	c-17.1-2.1-34.9,2.8-48.4,13.5c0,1.9-3.1,3.7-3.1,5.6V446l338.1,0L343.9,442.9z"></path>
<linearGradient id="H_SVGID_2_" gradientUnits="userSpaceOnUse" x1="3.236" y1="341.4532" x2="347.517" y2="341.4532">
	<stop offset="0.1335" style="stop-color:#77BFBB"></stop>
	<stop offset="0.2487" style="stop-color:#60ABAE"></stop>
	<stop offset="0.4393" style="stop-color:#408E9B"></stop>
	<stop offset="0.5993" style="stop-color:#2C7C8F"></stop>
	<stop offset="0.7083" style="stop-color:#25768B"></stop>
</linearGradient>
<path opacity="0.6" fill="url(#H_SVGID_2_)" d="M343.9,442.9c5.3-16.2,6.2-49.4-7-60.1c-13.2-10.8-30.2-15.5-46.9-19.1
	c-16.7-3.6-33.8-6.4-48.9-14.2c-30.2-15.6-50-49.8-83.1-57.5c-15.2-3.6-32.6-1.4-44.8-11.1c-6.2-4.9-10-12.2-14.8-18.5
	c-10.5-13.7-26.5-22.9-43.6-25c-17.1-2.1-34.9,2.8-48.4,13.5c0,1.9-3.1,3.7-3.1,5.6V446l338.1,0L343.9,442.9z"></path>
<path fill="#25768B" d="M335.4,384.1c-13.2-10.8-28.4-4.8-45-8.4c-16.7-3.6-33.8-6.4-48.9-14.2c-30.2-15.6-50-49.8-83.1-57.5
	c-15.2-3.6-32.6-1.4-44.8-11.1c-6.2-4.9-10-23.5-14.8-29.8c4.8,6.3,8.6,13.6,14.8,18.5c12.2,9.7,29.6,7.5,44.8,11.1
	c33.1,7.8,52.9,41.9,83.1,57.5c15.1,7.8,32.3,10.7,48.9,14.2c16.7,3.6,33.7,8.3,46.9,19.1L335.4,384.1z"></path>
<path fill="#62A39E" d="M491.1,422.1c-5.3-16.2-6.2-49.4,7-60.1c13.2-10.8,30.2-15.5,46.9-19.1c16.7-3.6,33.8-6.4,48.9-14.2
	c30.2-15.6,50-49.8,83.1-57.5c15.2-3.6,32.6-1.4,44.8-11.1c6.2-4.9,10-12.2,14.8-18.5c10.5-13.7,26.5-22.9,43.6-25
	c17.1-2.1,34.9,2.8,48.4,13.5c0,1.9,3.1,3.7,3.1,5.6v189.6l-338.1,0L491.1,422.1z"></path>
<path fill="#77BFBB" d="M501.4,424.1c-5.3-16.2-6.2-49.4,7-60.1c13.2-10.8,30.2-15.5,46.9-19.1s33.8-6.4,48.9-14.2
	c30.2-15.6,50-49.8,83.1-57.5c15.2-3.6,32.6-1.4,44.8-11.1c6.2-4.9,10-12.2,14.8-18.5c10.5-13.7,26.5-22.9,43.6-25
	c17.1-2.1,34.9,2.8,48.4,13.5c0,1.9,3.1,3.7,3.1,5.6v189.6l-338.1,0L501.4,424.1z"></path>
<linearGradient id="H_SVGID_3_" gradientUnits="userSpaceOnUse" x1="645.4275" y1="284.2565" x2="756.6439" y2="476.8891">
	<stop offset="0.236" style="stop-color:#77BFBB"></stop>
	<stop offset="0.2678" style="stop-color:#74BAB6"></stop>
	<stop offset="0.3955" style="stop-color:#6AADA8"></stop>
	<stop offset="0.5547" style="stop-color:#64A5A0"></stop>
	<stop offset="0.8401" style="stop-color:#62A39E"></stop>
</linearGradient>
<path opacity="0.89" fill="url(#H_SVGID_3_)" d="M501.9,424.1c-5.3-16.2-6.2-49.4,7-60.1c13.2-10.8,30.2-15.5,46.9-19.1
	s33.8-6.4,48.9-14.2c30.2-15.6,50-49.8,83.1-57.5c15.2-3.6,32.6-1.4,44.8-11.1c6.2-4.9,10-12.2,14.8-18.5
	c10.5-13.7,26.5-22.9,43.6-25c17.1-2.1,34.9,2.8,48.4,13.5c0,1.9,3.1,3.7,3.1,5.6v189.6l-338.1,0L501.9,424.1z"></path>
<path fill="#FFFFFF" d="M659.8,193.9c-0.3,2.2-1.2,4.4-2.6,6.2c-0.2,0.3-0.5,0.6-0.8,0.8c-0.3,0.1-0.5,0.2-0.8,0.2
	c-2.5,0.2-4.9-0.7-7.3-1.1c-2.4-0.4-5.3,0.4-7.4,1.7c-1.4,0.9-2.8,1.8-3.6,3.2c-0.3,0.5-0.5,1.1-0.8,1.6c-0.8,1.1-2.2,1.6-3.5,1.8
	c-2.7,0.5-5.6,0.1-8.1-1.1c-0.9-0.4-1.7-0.9-2.7-1.1c-2.7-0.7-5.6,0.9-8.3,0.3c-2.3-0.6-3.9-2.6-5-4.7c-0.6-1.2-1.2-2.6-1.1-3.9
	c0-0.6,0.2-1.3,0-1.9c-0.1-0.6-0.7-1.3-1.3-1.1c-0.2,0-0.5,0.2-0.7,0.2c-0.6,0.1-1.2-0.3-1.6-0.8c-0.4-0.5-0.6-1.1-0.9-1.6
	c-0.9-1.4-2.9-2.1-4.5-1.5c-1.1,0.4-2.2,1.3-3.4,0.9c-0.7-0.3-1.1-1-1.8-1.3c-1.1-0.5-2.3,0.2-3.5-0.1c-1.2-0.3-1.9-1.6-1.9-2.8
	c0-1.2,0.4-2.4,0.9-3.5c1.3-3.1,2.6-7,5.6-8.4c3-1.4,6.8-1.1,9.5,0.9c0.3,0.2,0.6,0.5,1,0.6c0.5,0.1,1.1,0,1.5-0.2
	c2.2-1,3.2-3.5,4.9-5.1c1.8-1.7,4.3-2.4,6.7-3c1.1-0.3,2.3-0.6,3.4-0.3c1.5,0.4,2.7,1.6,4,2.4c1.3,0.8,2.8,1.1,4.3,1.4
	c0.9,0.2,1.9,0.4,2.9,0.3c1.9-0.2,3.5-1.5,5-2.7c3-2.3,6.5-4.4,10.2-4.3c3.3,0.1,6.5,1.9,8.6,4.5s3.4,5.8,4.1,9
	c0.1,0.4,0.2,0.9,0.5,1.2c0.4,0.4,0.9,0.6,1.5,0.8c1.2,0.3,2.5,0.7,3.5,1.6c0.8,0.7,1.1,1.8,1.4,2.8c0.5,2.2,0.2,4.7-1.2,6.6
	C665,193.9,662,194.6,659.8,193.9z"></path>
<path fill="#FFFFFF" d="M596.1,203c-1.3,0-6.1,2.8-6.2-1.4c0,0-0.4-4.4-1.1-4.4c-0.7,0-1.4,0-1.4,0l1-3.9c0,0-0.5-6.9,1.1-7.2
	c0,0,7-4.3,12.2,1.2c5.2,5.5,5.7,7.7,6.6,7.1s-3,5.5-3,5.5l1.4,10.6l-8.2,5.1l-1.7-3"></path>
<path fill="#1568A5" d="M657,191.6c-0.3,2.2-1.2,4.4-2.6,6.2c-0.2,0.3-0.5,0.6-0.8,0.8c-0.3,0.1-0.5,0.2-0.8,0.2
	c-2.5,0.2-4.9-0.7-7.3-1.1c-2.4-0.4-5.3,0.4-7.4,1.7c-1.4,0.9-2.8,1.8-3.6,3.2c-0.3,0.5-0.5,1.1-0.8,1.6c-0.8,1.1-2.2,1.6-3.5,1.8
	c-2.7,0.5-5.6,0.1-8.1-1.1c-0.9-0.4-1.7-0.9-2.7-1.1c-2.7-0.7-5.6,0.9-8.3,0.3c-2.3-0.6-3.9-2.6-5-4.7c-0.6-1.2-1.2-2.6-1.1-3.9
	c0-0.6,0.2-1.3,0-1.9c-0.1-0.6-0.7-1.3-1.3-1.1c-0.2,0-0.5,0.2-0.7,0.2c-0.6,0.1-1.2-0.3-1.6-0.8s-0.6-1.1-0.9-1.6
	c-0.9-1.4-2.9-2.1-4.5-1.5c-1.1,0.4-2.2,1.3-3.4,0.9c-0.7-0.3-1.1-1-1.8-1.3c-1.1-0.5-2.3,0.2-3.5-0.1c-1.2-0.3-1.9-1.6-1.9-2.8
	c0-1.2,0.4-2.4,0.9-3.5c1.3-3.1,2.6-7,5.6-8.4c3-1.4,6.8-1.1,9.5,0.9c0.3,0.2,0.6,0.5,1,0.6c0.5,0.1,1.1,0,1.5-0.2
	c2.2-1,3.2-3.5,4.9-5.1c1.8-1.7,4.3-2.4,6.7-3c1.1-0.3,2.3-0.6,3.4-0.3c1.5,0.4,2.7,1.6,4,2.4c1.3,0.8,2.8,1.1,4.3,1.4
	c0.9,0.2,1.9,0.4,2.9,0.3c1.9-0.2,3.5-1.5,5-2.7c3-2.3,6.5-4.4,10.2-4.3c3.3,0.1,6.5,1.9,8.6,4.5s3.4,5.8,4.1,9
	c0.1,0.4,0.2,0.9,0.5,1.2c0.4,0.4,0.9,0.6,1.5,0.8c1.2,0.3,2.5,0.7,3.5,1.6c0.8,0.7,1.1,1.8,1.4,2.8c0.5,2.2,0.2,4.7-1.2,6.6
	C662.2,191.5,659.2,192.3,657,191.6z"></path>
<polygon fill="#EAA11F" points="720.2,86.2 728.8,93.2 728.8,287.5 716.1,287.5 "></polygon>
<polygon fill="#F9B529" points="545.6,327.6 545.6,120.9 720.2,86.2 720.2,324.8 "></polygon>
<linearGradient id="H_SVGID_4_" gradientUnits="userSpaceOnUse" x1="737.8837" y1="236.9899" x2="565.6881" y2="187.6137">
	<stop offset="0.7342" style="stop-color:#F9B529"></stop>
	<stop offset="0.9697" style="stop-color:#EAA11F"></stop>
</linearGradient>
<polygon fill="url(#H_SVGID_4_)" points="545.6,327.6 545.6,120.9 720.2,86.2 720.2,324.8 "></polygon>
<g>
	<linearGradient id="H_SVGID_5_" gradientUnits="userSpaceOnUse" x1="382.8005" y1="291.3907" x2="693.7764" y2="291.3907">
		<stop offset="6.610577e-04" style="stop-color:#D13D47"></stop>
		<stop offset="0.1977" style="stop-color:#DD4048"></stop>
		<stop offset="0.557" style="stop-color:#EC444A"></stop>
		<stop offset="0.8401" style="stop-color:#F2454B"></stop>
	</linearGradient>
	<polyline fill="url(#H_SVGID_5_)" points="382.8,408.8 382.8,163.2 691.1,275.2 693.8,419.6 	"></polyline>
</g>
<path fill="#191A38" d="M542.3,273.4c0,0-5.5,1.9-6.3,2.2c-0.8,0.4-3.6,1.1-2.6,1.3s6.3-1.1,5.6-0.7c-0.7,0.4-6.2,1.7-6.2,2.1
	c-0.1,0.8,6.4-0.4,6.4-0.4s-5.8,1.8-6.2,2.1c-0.5,0.3-0.1,1.5,5.3-0.2c5.4-1.7-4.8,1.6-4.8,1.6s-0.6,1.3,2.6,0.6
	c3.2-0.7,8-2.4,8.9-3.1s2.2-2.2,2.2-2.2L542.3,273.4z"></path>
<path fill="#191A38" d="M601.5,196.3c-1.4,0-6.3,3-6.4-1.5c0,0-0.4-4.6-1.1-4.6s-1.4,0-1.4,0l1-4c0,0-0.5-7.1,1.1-7.5
	c0,0,7.3-4.5,12.6,1.3c5.4,5.8,5.9,8,6.8,7.4s-3.1,5.7-3.1,5.7l1.5,11l-8.5,5.3l-1.7-3.1"></path>
<path fill="#FFFFFF" d="M664.8,184.5c-0.3,2.3-1.3,4.6-2.7,6.4c-0.2,0.3-0.5,0.6-0.9,0.8c-0.3,0.1-0.6,0.2-0.9,0.2
	c-2.6,0.2-5.1-0.7-7.6-1.2c-2.5-0.4-5.5,0.4-7.6,1.8c-1.4,0.9-2.9,1.8-3.7,3.3c-0.3,0.5-0.5,1.1-0.9,1.7c-0.8,1.2-2.3,1.7-3.7,1.9
	c-2.8,0.5-5.8,0.1-8.5-1.1c-0.9-0.4-1.8-0.9-2.8-1.2c-2.8-0.7-5.8,1-8.6,0.3c-2.4-0.6-4.1-2.7-5.2-4.9c-0.7-1.3-1.2-2.7-1.2-4.1
	c0-0.7,0.2-1.4,0-2c-0.1-0.7-0.7-1.3-1.4-1.2c-0.3,0-0.5,0.2-0.7,0.2c-0.6,0.2-1.3-0.3-1.7-0.8s-0.6-1.1-1-1.7c-1-1.5-3-2.2-4.6-1.6
	c-1.2,0.4-2.3,1.4-3.5,0.9c-0.7-0.3-1.2-1-1.9-1.3c-1.1-0.5-2.4,0.2-3.6-0.1c-1.2-0.3-1.9-1.6-2-2.9c0-1.2,0.4-2.4,0.9-3.6
	c1.3-3.2,2.7-7.2,5.8-8.7c3.1-1.5,7-1.1,9.8,0.9c0.3,0.2,0.7,0.5,1.1,0.6c0.5,0.2,1.1,0,1.6-0.2c2.3-1,3.3-3.6,5.1-5.4
	c1.9-1.8,4.5-2.5,7-3.1c1.2-0.3,2.4-0.6,3.6-0.4c1.6,0.4,2.8,1.7,4.2,2.5c1.3,0.8,2.9,1.1,4.4,1.4c1,0.2,2,0.4,3,0.3
	c2-0.2,3.6-1.6,5.1-2.8c3.1-2.4,6.7-4.6,10.6-4.5c3.5,0.1,6.7,2,9,4.6c2.2,2.7,3.5,6,4.3,9.4c0.1,0.4,0.2,0.9,0.5,1.3
	c0.4,0.5,1,0.7,1.6,0.8c1.3,0.3,2.6,0.7,3.6,1.6c0.8,0.8,1.2,1.8,1.4,2.9c0.5,2.3,0.2,4.9-1.2,6.8
	C670.2,184.4,667.1,185.3,664.8,184.5z"></path>
<path fill="#E25A2B" d="M614,200.7c0,0,21.1,10.6,30.6,27.9s28.6,43,33.4,45.9c-1.3,6.5-3.6,10.1-3.6,10.1s-34.7-28.6-40.3-41.4
	s-6.7-8.5-4.5,1.2s14.4,51.5,14.4,51.5l-63.6,10.6c0,0,10.8-68.1,7.2-64.7c-3.6,3.5-7.9,17.2-17.6,25.2S547.1,278,547.1,278
	l-7.5-5.1c0,0,37.8-28.4,41.1-51.9c2.2-15.7,19.6-15.6,19.6-15.6L614,200.7z"></path>
<linearGradient id="H_SVGID_6_" gradientUnits="userSpaceOnUse" x1="226.1816" y1="374.6803" x2="756.0842" y2="374.6803">
	<stop offset="6.610577e-04" style="stop-color:#191A38"></stop>
	<stop offset="0.2149" style="stop-color:#191A3E"></stop>
	<stop offset="0.4982" style="stop-color:#191A4F"></stop>
	<stop offset="0.5833" style="stop-color:#191A55"></stop>
</linearGradient>
<polyline fill="url(#H_SVGID_6_)" points="756.1,451.3 756.1,269.9 226.2,375.8 226.2,506.1 "></polyline>
<path fill="#FFFFFF" d="M527.4,295.4c0,0,5.8,0.6,6.7,0.8c0.8,0.2,3.8,0.3,2.8,0.8c-1,0.5-6.5,0.5-5.7,0.7c0.8,0.3,6.5,0.3,6.6,0.7
	c0.2,0.9-6.5,1.3-6.5,1.3s6.1,0.5,6.6,0.7c0.5,0.2,0.3,1.6-5.4,1.2c-5.7-0.5,5,0.5,5,0.5s0.8,1.3-2.5,1.4c-3.3,0.1-8.4-0.6-9.4-1.1
	s-2.5-1.9-2.5-1.9L527.4,295.4z"></path>
<path fill="#FFFFFF" d="M405,291.3c0,0-5.9,0.5-6.7,0.6c-0.8,0.2-3.8,0.2-2.8,0.8s6.6,0.8,5.8,1c-0.8,0.3-6.6,0.1-6.6,0.5
	c-0.1,1,6.6,1.7,6.6,1.7s-6.1,0.3-6.6,0.5c-0.5,0.2-0.3,1.8,5.5,1.5c5.8-0.3-5.1,0.4-5.1,0.4s-0.8,1.4,2.6,1.6
	c3.4,0.2,8.5-0.4,9.5-0.9c0.9-0.6,2.5-2,2.5-2L405,291.3z"></path>
<path fill="#FFFFFF" d="M477.8,213.8c1.4,0,6.9,1.5,7-2.9c0,0-0.2-3.9,0.5-3.9s1.4-0.2,1.4-0.2l-1-3.1c0,0,0.5-7.1-1.1-7.5
	c0,0-7.3-4.5-12.6,1.3c-5.4,5.8-5.9,8-6.8,7.4c-0.9-0.6,3.1,5.7,3.1,5.7l-0.2,11.2l7.2,5.2l2.6-3.1"></path>
<path fill="#F9B529" d="M512.8,431.3c0,0-6.3-56.1-6.9-61.2s-12-59.3-12-59.3l-47.3-1.3c0,0-12,63.1-18.3,74.4
	c-6.3,11.4-20.8,39.1-20.8,39.1l18.3,10.1c0,0,27.1-41.6,30.3-49.2c3.2-7.6,12.6-44.1,12.6-44.1l12.6,51.7l5.7,42.9L512.8,431.3z"></path>
<path fill="#191A38" d="M478.8,222.8c6.2,0.6,27.7,44.3,29.3,51.6s21.3,20.2,21.3,20.2l-3.9,7.8c0,0-17.9-9-25.8-17.4
	c-7.8-8.4-14.1-25.1-13.1-18c1.8,13.7,7.7,45.9,7.7,45.9l-50-0.1l7.6-46.8l0.2-9.7c0,0-5.6,10.1-12.3,17.9
	c-6.7,7.8-31.4,24.1-31.4,24.1l-6.2-7.6c0,0,14.9-10.4,28.9-31.1c14-20.7,18.5-25.9,18.5-25.9c2.3-3.8,9.1-13.9,14.9-14.2l0.2-5.2
	l13.7,4.1L478.8,222.8z"></path>
<path fill="#FFFFFF" d="M475.8,198.6c0.7-0.1,1.5,0.1,2.2,0.1c2,0,3.9-1.1,5.5-2.3c1.3-0.9,2.5-2,3.1-3.4c0.6-1.4,0.2-3.4-1.1-4.1
	c-2.1-1.1-4.9,1.2-7,0c-0.7-0.4-1.2-1.2-1.9-1.6c-1.1-0.7-2.7-0.6-3.6,0.4c-0.9,0.9-1.3,2.5-2.6,2.5c-1.4,0.1-3.6-1.9-4.9-2.4
	c-1-0.4-2.2,0.2-2.8,1c-0.6,0.9-0.9,1.9-1.2,3c-1.1,4.1-1.2,8.4,0.2,12.4c0.5,1.4,1.6,4.9,2.9,5.5c1.3,0.6,3.1,0.3,3.9-0.9
	c1-1.4,0.1-5.6,0.4-7.4c0-0.2,0.1-0.4,0.2-0.6c0.4-0.5,1.2-0.1,1.6,0.4c0.4,0.5,0.6,1,1.2,1.4C473.6,201.1,472.9,198.9,475.8,198.6z
	"></path>
<path fill="#EAA11F" d="M486.9,433.7l-5.7-41.2l-12.6-50.6c0,0-1.9-8.8,0.6-6.4c2.5,2.4,6.3,20.3,7.1,22.9
	c0.8,2.6,7.3,42.2,8.1,47.3C485.2,410.8,486.9,433.7,486.9,433.7z"></path>
<path fill="#101323" d="M487,265.3c0,0-4.1-4-3.3,0.4s7,47.3,7,47.3l3.7-0.1C494.3,312.9,486.2,267.7,487,265.3z"></path>
<path fill="#191A38" d="M676.1,277.3c0,0,5.4,2,6.2,2.4c0.8,0.4,3.5,1.2,2.6,1.3c-0.9,0.1-6.1-1.4-5.4-1c0.7,0.4,6.1,2,6.1,2.3
	c0.1,0.7-6.1-0.8-6.1-0.8s5.7,2,6.1,2.3c0.5,0.3,0.2,1.3-5.1-0.6s4.7,1.8,4.7,1.8s0.7,1.2-2.4,0.3c-3.1-0.9-7.8-2.7-8.7-3.4
	c-0.9-0.7-2.3-2.1-2.3-2.1L676.1,277.3z"></path>
<path fill="#F4662D" d="M614,200.7c0,0,21.1,10.6,30.6,27.9s28.6,43,33.4,45.9c-1.3,6.5-3.6,10.1-3.6,10.1s-34.7-28.6-40.3-41.4
	s-6.7-8.5-4.5,1.2s12.6,46.1,12.6,46.1l-60.8,9.9c0,0,9.7-62,6.2-58.6c-3.6,3.5-7.9,17.2-17.6,25.2S547.1,278,547.1,278l-7.5-5.1
	c0,0,37.8-28.4,41.1-51.9c2.2-15.7,19.6-15.6,19.6-15.6L614,200.7z"></path>
<rect x="650.7" y="312.9" fill="#FFFFFF" width="5.7" height="15"></rect>
<rect x="662.1" y="312.9" fill="#FFFFFF" width="5.7" height="15"></rect>
<rect x="398.5" y="197.4" fill="#FFFFFF" width="5.7" height="5.4"></rect>
<rect x="409.9" y="197.4" fill="#FFFFFF" width="5.7" height="5.4"></rect>
<rect x="398.5" y="209.5" fill="#FFFFFF" width="5.7" height="5.4"></rect>
<rect x="409.9" y="209.5" fill="#FFFFFF" width="5.7" height="5.4"></rect>
<rect x="398.5" y="221.6" fill="#FFFFFF" width="5.7" height="5.4"></rect>
<rect x="409.9" y="221.6" fill="#FFFFFF" width="5.7" height="5.4"></rect>
<path fill="#E25A2B" d="M629.3,234.6c0,0-9.7-3.4-6.2,8.7c3.5,12,14.5,48.6,14.5,48.6l5.2-1.1C642.8,290.8,628.3,244.2,629.3,234.6z
	"></path>
<path fill="#F9B529" d="M477.1,199.4c0.7-0.1,1.5,0.1,2.2,0.1c2,0,3.9-1.1,5.5-2.3c1.3-0.9,2.5-2,3.1-3.4c0.6-1.4,0.2-3.4-1.1-4.1
	c-2.1-1.1-4.9,1.2-7,0c-0.7-0.4-1.2-1.2-1.9-1.6c-1.1-0.7-2.7-0.6-3.6,0.4c-0.9,0.9-1.3,2.5-2.6,2.5c-1.4,0.1-3.6-1.9-4.9-2.4
	c-1-0.4-2.2,0.2-2.8,1c-0.6,0.9-0.9,1.9-1.2,3c-1.1,4.1-1.2,8.4,0.2,12.4c0.5,1.4,1.6,4.9,2.9,5.5c1.3,0.6,3.1,0.3,3.9-0.9
	c1-1.4,0.1-5.6,0.4-7.4c0-0.2,0.1-0.4,0.2-0.6c0.4-0.5,1.2-0.1,1.6,0.4c0.4,0.5,0.6,1,1.2,1.4C474.9,201.9,474.3,199.7,477.1,199.4z
	"></path>
	<polygon fill="#101323" points="756.1,269.9 766.1,279 766.1,435.7 755.8,435.7 "></polygon>
<g data-rellax-speed=".5">
  <path fill="#FFFFFF" d="M844.5,542.9H1.5L0,315.3c204.3-21.6,166,183.3,311.9,117.1c0,0,162.5-92.4,302.9-16.4
	c71.9,38.3,140.4-57.5,229.7-35.9"></path>
</g>
</svg>