<svg viewBox="25 0 820 330">

	<linearGradient id="MP_SVGID_1_" gradientUnits="userSpaceOnUse" x1="16.0643" y1="166.3508" x2="851.3458" y2="166.3508">
		<stop offset="0.1335" style="stop-color:#B6D4FE"/>
		<stop offset="0.8107" style="stop-color:#B6D4FE"/>
	</linearGradient>

	<g data-rellax-speed="-1">
		<path opacity="0.27" fill="url(#MP_SVGID_1_)" d="M16.1,88.2c13.2-8.3,41.2-56.7,78.8-50.3s88.2,91.9,116.1,89
	c0,0,32.3,22.2,113.5-10.4s120.4,93.5,172,89.3C542.2,202,759.6,55.5,848.6,65.7l2.7,229.7L23.9,277.6L16.1,88.2z"/>
	</g>

	<path fill="#FFFFFF" d="M496.9,203.6c27.1-29.8,81.6-45.2,114.1-2.1l-0.7,111.7"/>

	<linearGradient id="MP_SVGID_2_" gradientUnits="userSpaceOnUse" x1="14673.9805" y1="183.0952" x2="15503.3623" y2="183.0952" gradientTransform="matrix(-1 0 0 1 15521.2236 0)">
		<stop offset="0.1335" style="stop-color:#B6D4FE"/>
		<stop offset="0.8107" style="stop-color:#B6D4FE"/>
	</linearGradient>

	<g data-rellax-speed="-.5">
		<path opacity="0.39" fill="url(#MP_SVGID_2_)" d="M17.9,197.4l0.6-65.6c25.8-23.5,61.3-36.6,113.4-13.9c75.9,33.1,106,10.5,106,10.5
	s108.8-73.5,195-27.1s169.3,115.5,233.9,66.3s119-64.4,180.5-36c0,70.1,0,148.6,0,148.6H24.6L17.9,197.4"/>
	</g>


	<path
		fill="#2E8A9E"
		d="M245.3,306.9c3.6-11.2,4.1-34.3-4.7-41.8c-8.8-7.5-20.2-10.8-31.3-13.2c-11.1-2.5-22.5-4.5-32.6-9.9
	c-20.1-10.8-33.4-34.6-55.5-40c-10.1-2.5-21.8-1-29.9-7.7c-4.1-3.4-6.7-8.5-9.9-12.8c-7-9.5-17.7-15.9-29.1-17.4
	c-11.4-1.5-23.3,2-32.3,9.4c0,1.3-2.1,2.6-2.1,3.9v131.7l225.7,0L245.3,306.9z"/>
	<linearGradient id="MP_SVGID_3_" gradientUnits="userSpaceOnUse" x1="90.9287" y1="311.7016" x2="140.9545" y2="226.8341">
		<stop offset="0.1622" style="stop-color:#77BFBB"/>
		<stop offset="0.3301" style="stop-color:#6DB6B5"/>
		<stop offset="0.6135" style="stop-color:#539FA6"/>
		<stop offset="0.9761" style="stop-color:#28798D"/>
		<stop offset="1" style="stop-color:#25768B"/>
	</linearGradient>

		<path
			opacity="0.48"
			fill="url(#MP_SVGID_3_)"
			d="M245.7,306.9c3.6-11.2,4.1-34.3-4.7-41.8c-8.8-7.5-20.2-10.8-31.3-13.2
	c-11.1-2.5-22.5-4.5-32.6-9.9c-20.1-10.8-33.4-34.6-55.5-40c-10.1-2.5-21.8-1-29.9-7.7c-4.1-3.4-6.7-8.5-9.9-12.8
	c-7-9.5-17.7-15.9-29.1-17.4c-11.4-1.5-23.3,2-32.3,9.4c0,1.3-2.1,2.6-2.1,3.9v131.7l225.7,0L245.7,306.9z"/>

	<path
		fill="#25768B"
		d="M264.9,264.7c-10.5-7.2-8,4-21.2,1.6c-13.2-2.4-43.5-9.6-55.5-14.8c-24-10.4-37.7-35-64-40.2
	c-12.1-2.4-25.9-0.9-35.6-7.4c-4.9-3.3-7.9-15.7-11.8-19.8c3.8,4.2,6.8,9,11.8,12.3c9.7,6.5,23.6,5,35.6,7.4
	c26.3,5.2,25.1,23.5,50.9,30.2c16.9,4.3,40.7,15.3,54,17.7c13.2,2.4,26.8,5.5,37.3,12.7L264.9,264.7z"/>

	<linearGradient id="MP_SVGID_4_" gradientUnits="userSpaceOnUse" x1="268.8776" y1="305.8426" x2="338.0614" y2="57.3655">
		<stop offset="6.610577e-04" style="stop-color:#D13D47"/>
		<stop offset="0.1977" style="stop-color:#DD4048"/>
		<stop offset="0.557" style="stop-color:#EC444A"/>
		<stop offset="0.8401" style="stop-color:#F2454B"/>
	</linearGradient>
	<polyline fill="url(#MP_SVGID_4_)" points="240.1,317.1 240.1,144.9 240.1,59.7 302.5,0 363.1,60.5 363.1,316.8 			"/>
	<rect x="256.6" y="80.6" fill="#FFFFFF" width="12.9" height="33.6"/>
	<rect x="275.7" y="80.6" fill="#FFFFFF" width="12.9" height="33.6"/>
	<rect x="316.1" y="146.9" fill="#FFFFFF" width="12.9" height="33.6"/>
	<rect x="335.2" y="146.9" fill="#FFFFFF" width="12.9" height="33.6"/>

	<path fill="#FFFFFF" d="M607.6,202.1l-0.7,111.7l-394.2,2.6c0,0,26.1-34.9,46.9-37.9c20.9-3,19.5-3,17.5-19.7
	c-2-16.7,4-37.6,27.6-30.4c23.6,7.2,33.6,14.3,33.6,1.8c0,0-4.8-48.8,45.8-33.9s82.3,37.7,109.3,8
	C520.5,174.5,575.1,159.1,607.6,202.1z"/>
	<linearGradient id="MP_SVGID_5_" gradientUnits="userSpaceOnUse" x1="807.3722" y1="340.9299" x2="516.6335" y2="253.8785">
		<stop offset="6.610577e-04" style="stop-color:#191A38"/>
		<stop offset="0.2149" style="stop-color:#191A3E"/>
		<stop offset="0.4982" style="stop-color:#191A4F"/>
		<stop offset="0.5833" style="stop-color:#191A55"/>
	</linearGradient>
	<path
		fill="url(#MP_SVGID_5_)"
		d="M848.9,319.6L222.9,322c0,0,27.2-32.4,49-35.1s20.4-2.8,18.3-18.3c-2.1-15.5,4.2-34.9,28.8-28.3
	c24.6,6.6,35.1,13.3,35.1,1.7c0,0-2.9-71.2,88.3-29.5s116.6-26.8,173.9-27.2c32.5-0.8,44,31,82.2,55.7s148.5-68.4,150-39.5
	C849.5,218.8,848.9,319.6,848.9,319.6"/>

	<linearGradient id="MP_SVGID_6_" gradientUnits="userSpaceOnUse" x1="14775.9785" y1="311.3437" x2="15401.9688" y2="311.3437" gradientTransform="matrix(-1 0 0 1 15521.2236 0)">
		<stop offset="0.1335" style="stop-color:#B6D4FE"/>
		<stop offset="0.8107" style="stop-color:#B6D4FE"/>
	</linearGradient>
	<line opacity="0.39" fill="url(#MP_SVGID_6_)" x1="119.3" y1="320.4" x2="745.2" y2="302.3"/>
	<path
		fill="#191A38"
		d="M193.3,150.9c8,9,15.6,50.6,17.7,72.9s0,44,0,44l-7.4,1.6c0,0-2.7-16.4-6.4-32.4c-3.7-15.9-18-49.9-18-49.9
		s-4.2,13.3-9,18.6c-4.8,5.3-57.4,25-57.4,25s-0.4-1.1-6.2-5.9c27.6-24.4,46.7-30.2,50.9-33.4c0-34,10-43.5,10-43.5L193.3,150.9z"/>
	<path fill="#191A38" d="M191.7,81.3"/>
	<path fill="#F2454B" d="M190.3,82.7l-2.6,3l-10.7-5.8l0.8-10.2c0,0-0.8-6,0-5.4c0.9,0.6,1.4-1.6,6.6-7.1s12.3-1.2,12.3-1.2
		c1.6,0.3,1.1,7.3,1.1,7.3s3,4.6,2,5c-1.1,0.4-2,0.9-2,0.9s1,8.9-2.5,9l-4.6-0.2L190.3,82.7z"/>
	<path
		fill="#FFFFFF"
		d="M201.9,46.4c-1.8-3.9-7.5-3.7-10.1-2.6c-13.3-4.2-12,6.8-17.9,6.9c-6.3,0.1-4.1,5.4-4.1,11.1
		s3.2,12.4,3.2,12.4s3.8,0.7,4.9-0.5s2.9-6.7,2.9-6.7c1.2-1.5-1.2-2.6-0.8-4.3c0,0,0.5-3.8,3.8-2.8l0.3,0.2c1.9-1.4,1.1-3.7,4.6-3.9
		c0.9-0.1,1.8,0.1,2.7,0.1c2.4,0,4.6-1.2,6.6-2.4c1.5-0.9,3.3-1.4,4-2.8"/>
	<path fill="#F2454B" d="M241.7,93.9c0.2-0.4,0.3-0.9,0.7-1.2c0.3-0.3,0.9-0.4,1.3-0.1c0.2,0.2-0.2,5.7,0.1,5.8
		c1,0.3,1.4,6.2-0.5,11.5c-0.2,0.7-0.5,1.4-1.1,1.9c-0.5,0.5-1.2,0.8-1.9,1c-1,0.4-2.1,0.7-3.2,0.5
		C234.8,112.8,241.1,95.5,241.7,93.9z"/>
	<path
		fill="#F2454B"
		d="M238.2,84.9c0.2-0.6,0.6-1.4,1.2-1.3c0.7,0.1,0.9,0.9,1,1.6c0.1,2.3-0.1,4.7-0.7,6.9c0.7,0,0.7,1.1,0.5,1.8
		c-0.7,2.3-1.4,4.6-2,6.9c-0.3,1.1-0.8,2.4-1.9,2.9c-1,0.4-2.2-0.2-3.1-0.8c-0.8-0.5-1.6-1.2-1.8-2.1c-0.1-0.7,1.6-2,2-2.6
		c1.2-2.2,1.8-2.5,2.7-4.9C237.2,90.6,237.4,87.6,238.2,84.9z"/>

	<path fill="#FFFFFF" d="M102.8,229.6c-0.2,0.2-0.3,0.4-0.4,0.6c0,0.2,0.1,0.4,0.2,0.6c0.6,1.2,1.3,2.4,1.9,3.5
			c2.8-1.8,5.6-3.8,8.1-5.9c0.4-0.3-3.8-3-4.5-3C106.4,225.5,104,228.3,102.8,229.6z"/>
	<path fill="#FFFFFF" d="M107,227.9c0,0,4,4.2,3.4,5.7s0.7,8.8,3.3,12.5c1.9,2.6-2,4.4-2.9,4.8c-0.9,0.4-4.8-5.4-6.7-8.1
			s-6.6-10.2-6.6-10.2s-2.1-2,3.2-5C105.9,224.5,107,227.9,107,227.9z"/>
	<path fill="#FFFFFF" d="M206.5,276.2c0.1,0.2,0.3,0.5,0.5,0.6c0.2,0.1,0.4,0.1,0.6,0c1.3-0.2,2.6-0.4,4-0.6
			c-0.7-3.3-1.7-6.5-2.9-9.6c-0.2-0.5-4.1,2.5-4.3,3.2C203.9,271.5,205.7,274.7,206.5,276.2z"/>
	<path fill="#FFFFFF" d="M206.3,271.7c0,0,5.2-2.4,6.5-1.3c1.3,1.1,8.5,2.3,12.9,1c3.1-0.9,3.5,3.4,3.5,4.3s-6.7,2.8-9.8,3.6
			c-3.1,0.9-11.8,2.9-11.8,2.9s-2.6,1.3-3.7-4.6C202.8,271.6,206.3,271.7,206.3,271.7z"/>

	<path
		fill="#191A38"
		d="M193.3,150.9c8,9,15.6,50.6,17.7,72.9s0,44,0,44l-7.4,1.6c0,0-2.7-16.4-6.4-32.4c-3.7-15.9-18-49.9-18-49.9
		s-4.2,13.3-9,18.6c-4.8,5.3-57.4,25-57.4,25s-0.4-1.1-6.2-5.9c27.6-24.4,46.7-30.2,50.9-33.4c0-34,10-43.5,10-43.5L193.3,150.9z"/>

	<polygon fill="#F9B529" points="172.8,78.8 193.5,82.5 191,91.1 171.5,81.6 		"/>
	<path fill="#F9B529" d="M175.1,82.9c0,0-8.3-3.6-11.8,8.2c-3.5,11.7-1.3,46.9,2.3,58.3c1.6,5.2,29.5,4.4,29.5,4.4l0.6-25.5
			c0,0,7.3-31.1,3.2-34.6C194.8,90.2,175.1,82.9,175.1,82.9z"/>
	<path fill="#F9B529" d="M234.2,103.9c-7,4.3-27.2,8.8-38.7,5.8c-19-4.9-24.9-2.1-22.3-13.8c0,0-3.8-13.1,6-7.6
			c9.9,5.5,15.9,13.5,32.8,11.7c16.9-1.8,21.8-1.8,21.8-1.8"/>

	<path
		fill="#191A38"
		d="M202.6,47.3c-1.8-3.9-7.5-3.7-10.1-2.6c-13.3-4.2-12,6.8-17.9,6.9c-6.3,0.1-4.1,5.4-4.1,11.1
		s3.2,12.4,3.2,12.4s3.8,0.7,4.9-0.5c1.1-1.3,2.9-6.7,2.9-6.7c1.2-1.5-1.2-2.6-0.8-4.3c0,0,0.5-3.8,3.8-2.8l0.3,0.2
		c1.9-1.4,1.1-3.7,4.6-3.9c0.9-0.1,1.8,0.1,2.7,0.1c2.4,0,4.6-1.2,6.6-2.4c1.5-0.9,3.3-1.4,4-2.8"/>
	<path fill="#EAA11F" d="M195.4,154c-7,0.3-14.1,0.5-20.9-0.7c-8.4-1.5-8.3-2.5-9.4-5.9c8.1,2.5,17.1,4.4,25.5,3.6
		c0-4.9,0-9.8,0.8-14.6c1-5.5,3.3-14.8,3.6-20.4c4-0.4,1.1,16.2,1,18.7C196,136.2,195.6,153.9,195.4,154z"/>
	<path fill="#F9B529" d="M238,114.7c-7,4.3-27.2,8.8-38.7,5.8c-19-4.9-34-13.8-31.4-25.6c0,0,4.2-11.6,14.1-6.1
		c9.9,5.5,16.9,23.8,33.8,21.9s21.8-1.8,21.8-1.8"/>
	<path
		fill="#202242"
		d="M170.4,205.6c-4.3,4.8-13.3,7.3-19.1,9.7c-9.3,4-18.7,7.7-28.2,11.4c-2.1,0.8-6,2.3-8.1,3.1
		c-2.7,1-2.1,1-4.5-1.3c15.6-8.8,32.8-14.2,49.1-21.7c2.6-1.2,5.3-2.5,7.4-4.5c2.7-2.5,4.2-5.9,5.7-9.3c2.8-6.7,5.7-14,11.8-17.8
		c0.6,0.8,0,1.9-0.5,2.8c-1.6,2.7-4,5.5-5,8.5c-0.7,2-0.9,4.1-1.7,6.1C175.6,197.3,173.4,201.5,170.4,205.6z"/>
		<g data-rellax-speed=".25">
			<path fill="#62A39E" d="M806.9,191.4c-3,6.7-5.4,14.5-9.2,19.8c-7.6,10.4-18.5,8-28,11.9c-20.7,8.3-33.1,44.9-51.9,61.6
				c-9.5,8.4-20.2,11.4-30.6,15.3c-10.4,3.8-21,8.9-29.3,20.4c-3.2,4.4-5.1,12.4-6,21.6h-6.6c0.8-10.1,2.7-19,6.2-23.8
				c8.3-11.5,18.9-16.6,29.3-20.4c10.4-3.8,21.1-6.9,30.6-15.3c18.9-16.7,31.2-53.3,51.9-61.7c9.5-3.8,20.4-1.5,28-11.8
				c3.9-5.3,6.2-13.1,9.2-19.8c6.5-14.6,16.6-24.5,27.3-26.8c5.2-1.1,10.2-0.4,14.8,1.9c-1.4-0.2-2.8-0.3-4.2-0.2
				c-1.4,0-2.8,0.2-4.2,0.5C823.5,166.9,813.4,176.8,806.9,191.4z"/>
			<path fill="#77BFBB" d="M807.2,191.4c-3,6.7-5.4,14.5-9.2,19.8c-7.6,10.4-18.5,8-28,11.9c-20.7,8.3-33.1,44.9-51.9,61.6
				c-9.5,8.4-20.2,11.4-30.6,15.3c-10.4,3.8-21,8.9-29.3,20.4c-3.2,4.4-5.1,12.4-6,21.6h-0.3c0.9-9.2,2.8-17.2,6-21.6
				c8.3-11.5,18.9-16.6,29.3-20.4c10.4-3.8,21.1-6.9,30.6-15.3c18.9-16.7,31.2-53.3,51.9-61.6c9.5-3.8,20.4-1.5,28-11.9
				c3.9-5.3,6.2-13.1,9.2-19.8c6.5-14.6,16.6-24.5,27.3-26.8c1.4-0.3,2.9-0.5,4.2-0.5c-1.3,0.1-2.6,0.2-3.9,0.5
				C823.8,166.9,813.7,176.8,807.2,191.4z"/>
			<path fill="#77BFBB" d="M658.1,320.4c8.3-11.5,18.9-16.6,29.3-20.4c10.4-3.8,21.1-6.9,30.6-15.3c18.9-16.7,31.2-53.3,51.9-61.6
				c9.5-3.8,20.4-1.5,28-11.9c3.9-5.3,6.2-13.1,9.2-19.8c6.5-14.6,16.6-24.5,27.3-26.8c1.3-0.3,2.6-0.4,3.9-0.5c1.5,0,2.9,0.1,4.4,0.3
				c2.5,1.3,4.9,3,7.2,5.1V342H652.2C653.1,332.8,655,324.8,658.1,320.4z"/>
			<linearGradient id="MP_SVGID_7_" gradientUnits="userSpaceOnUse" x1="42.0779" y1="221.4126" x2="144.9436" y2="399.5812" gradientTransform="matrix(1 0 0 1 689.6571 0)">
				<stop  offset="0.236" style="stop-color:#77BFBB"/>
				<stop  offset="0.2678" style="stop-color:#74BAB6"/>
				<stop  offset="0.3955" style="stop-color:#6AADA8"/>
				<stop  offset="0.5547" style="stop-color:#64A5A0"/>
				<stop  offset="0.8401" style="stop-color:#62A39E"/>
			</linearGradient>
			<path opacity="0.89" fill="url(#MP_SVGID_7_)" d="M658.1,319.4c8.3-11.5,18.9-16.6,29.3-20.4c10.4-3.8,21.1-6.9,30.6-15.3
				c18.9-16.7,31.2-53.3,51.9-61.6c9.5-3.8,20.4-1.5,28-11.9c3.9-5.3,6.2-13.1,9.2-19.8c6.5-14.6,16.6-24.5,27.3-26.8
				c1.3-0.3,2.6-0.4,3.9-0.5c1.5,0,2.9,0.1,4.4,0.3c2.5,1.3,4.9,3,7.2,5.1V341H652.1C653,331.8,654.9,323.8,658.1,319.4z"/>
	</g>



	<path fill="#F4662D" d="M476.5,284.7c0,0.2,0.1,0.5-0.1,0.7c-0.1,0.2-0.3,0.3-0.5,0.4c-1.2,0.6-2.4,1.2-3.6,1.9
				c-1.4-3.1-2.5-6.2-3.5-9.4c-0.2-0.5,4.8-0.4,5.4,0C475.8,279.3,476.2,283,476.5,284.7z"/>
	<path fill="#F4662D" d="M474,281c0,0-5.6,1.2-6,2.8c-0.4,1.6-7,10.1-11.3,11.7c-3,1.1-3.4,3.2-2.8,4c0.5,0.8,11.1-3.4,14.2-4.6
				c3-1.2,11.2-4.7,11.2-4.7s2.8-0.4,0.2-5.9C476.7,278.8,474,281,474,281z"/>
	<path fill="#F4662D" d="M425.2,293.3c0,0.2,0,0.5-0.2,0.7c-0.1,0.2-0.4,0.2-0.6,0.3c-1.3,0.4-2.6,0.7-3.9,1.1
				c-0.7-3.3-1.1-6.6-1.4-10c0-0.5,4.8,0.6,5.2,1.2C425.7,287.9,425.3,291.6,425.2,293.3z"/>
	<path fill="#F4662D" d="M423.5,289.2c0,0-5.8,0-6.5,1.5s-9,8.4-13.5,9c-3.2,0.4-4,2.4-3.6,3.3c0.4,0.9,11.6-0.9,14.8-1.4
				c3.2-0.5,11.9-2.2,11.9-2.2s2.9,0.2,1.4-5.7S423.5,289.2,423.5,289.2z"/>
	<path fill="#F9B529" d="M423.1,213.2c0,0,0.1,14.7,3.6,19.1c3.5,4.4,41.4,49.1,41.4,49.1l9-1.9c0,0-15.5-35.5-21.9-44.1
				c-5.2-7-10.2-11.4-10.2-11.4s7.7-34.8,5.1-46.2S423.1,213.2,423.1,213.2z"/>

	<path
		fill="#F2454B"
		d="M365.7,120.4c-1-3.1-2-6.3-2.9-9.4c-0.4-0.6-1.2-0.4-1.4,0.4c-0.1,0.4-0.1,0.9-0.1,1.3
					c0.1,2.7,0.2,5.4,0.3,8.1c-0.1-0.3-0.4-0.3-0.5-0.1s-0.1,0.6-0.1,0.9c0.1,2.7,0.2,5.7,1.7,7.5c1.4,1.7,3.3,1.5,5,1.2
					c0.2,0,0.4-0.1,0.6-0.3c0.2-0.2,0.2-0.6,0.1-1C368.2,125.1,366.7,123.6,365.7,120.4z"/>
	<path
		fill="#F2454B"
		d="M363.3,129.6c-1.1-3.1-2.2-6.2-3.3-9.3c-0.5-0.5-1.2-0.3-1.4,0.4c-0.1,0.4-0.1,0.9,0,1.3
					c0.2,2.7,0.4,5.4,0.6,8.1c-0.1-0.3-0.4-0.3-0.5-0.1c-0.1,0.2-0.1,0.6-0.1,0.9c0.2,2.7,0.5,5.7,2,7.4c1.4,1.7,3.4,1.4,5.1,1
					c0.2,0,0.4-0.1,0.5-0.3c0.1-0.2,0.1-0.6,0.1-1C366,134.2,364.5,132.8,363.3,129.6z"/>
	<path
		fill="#F2454B"
		d="M434.9,103.1c-0.7-2.6-2-8.7-1.5-11.4c2.4-15.4,1.2-20.3-7.3-22.8l-16.3,2.8c0,0-0.1,11.3-0.5,12.4
					c-0.4,1.1-1.4,3-0.7,3.2s2.2-0.1,2.5,0.3c0.2,0.4-0.4,1.8-0.2,2.3c0.2,0.5,0.4,0.5,0.4,0.5s-0.2,0.7-0.2,0.9
					c0,0.3,0.6,0.6,0.7,0.9s0.2,2.9,0.6,3.2c0.4,0.3,0.5,1.2,5.4-0.5c3.8-1.3,4,10,4,10"/>
	<path
		fill="#191A38"
		d="M410.5,87.3c0,0,0.6-0.3,2.2-0.6c1.3-0.2,2.8,0,3.6,0.6c0,0,2.6,0.4,3.3,3.2c0.1,0.4,0.2,0.9,0.2,1.5
					c0,3.4,0.3,4.6-3.2,4.6c-3.5,0-4.9,0-5.1-2.2c-0.1-2.1-0.4-2.7,0.3-2.6c0.7,0.1,0.5,0-0.3,0.1C410.7,91.9,410.5,89,410.5,87.3z"/>
	<path
		fill="#191A38"
		d="M418.2,91.5c0,0,6-3.6,6.2-6.6c0.2-3-1.7-7.4-2-8c-0.4-0.6-11.7-2-12.3-1.9c-0.6,0.1-2.9-3.2-1.8-4.8
					c0.5,0.3,1.1,0.2,1.6-0.2c0.5-0.3,0.8-0.8,1.1-1.3c1-1.3,2.4-2.4,4.1-2.7c1.6-0.3,3.5,0.4,4.3,1.8c1.3-0.4,2.7-0.8,3.7-1.7
					c0.7-0.6,1.2-1.5,2-2c0.5-0.3,1.1-0.5,1.8-0.6c1.5-0.1,3.1,0.4,4.3,1.4c1.5,1.3,2.3,3.3,3,5.2c0.1,0.2,0.1,0.4,0.3,0.5
					c0.2,0.2,0.4,0.2,0.6,0.3c1.9,0.6,3.3,2.4,3.9,4.3s0.7,3.9,0.8,5.9c0,0.3,0,0.7-0.2,1c-0.1,0.2-0.3,0.4-0.5,0.6
					c-0.2,0.2-0.2,0.6-0.3,0.9c-0.4,2.2-0.4,4.4-0.1,6.6c0.1,0.8,0.2,1.6,0,2.3c-0.3,0.8-0.9,1.5-1.7,2c-1.9,1.3-4.4,1.6-6.6,1
					c-1.2-0.4-2.3-1-3.5-1.3c-1.4-0.3-3-0.2-4.3-0.9c-0.7-0.3-2.9,2.7-3.7,2.6c-0.4,0,0.9-3.5,0.5-3.6
					C418.8,92.2,418.3,91.9,418.2,91.5z"/>
	<path fill="#F9B529" d="M424.4,166.9c0,0-15.3,11.8-27.1,51.1c-0.9,2.2-0.4,5.7,1.3,13.1c1.7,7.4,15.7,57,15.7,57l11.7-1
					c0,0-2.2-37.1-10.8-58.4c6.3-8.2,32.9-30.5,35.5-41.9c2.6-11.4-1.5-20-10.2-22.2C431.8,162.5,424.4,166.9,424.4,166.9z"/>
	<path fill="#F4662D" d="M367.2,131.2c7,4.3,27.2,8.8,38.7,5.8c19-4.9,24.9-2.1,22.3-13.8c0,0,3.8-13.1-6-7.6
					c-9.9,5.5-15.9,13.5-32.8,11.7c-16.9-1.8-21.8-1.8-21.8-1.8"/>
	<path fill="#F4662D" d="M427.6,101.2c0,0,14.2-4.8,17.6,6.9s7.9,69.6,6.6,81.6c-1,8.8-44.7,3.1-44.7,3.1l6.6-42.9
					c0,0-1.6-40.7,2.5-44.2C420.4,102.2,427.6,101.2,427.6,101.2z"/>
	<path fill="#E25A2B" d="M413.6,143.9c-0.1,16.5-5.8,32.4-7.3,48.8c1.8-0.2,3.7-0.1,5.5,0.2c1.8,0.3,6.6,0.7,8.4,0.9
					c-3.1-12.9-4.2-27.2-2.7-40.4c0.5-4,0.9-8.4-1.1-11.9C415.5,142.3,414.6,143.1,413.6,143.9z"/>
	<path fill="#F4662D" d="M413.8,133.7c0,0-32.7,3.8-47.9,1.5c-0.1,1-3,3.7-1.6,4.8c7.6,6,41.1,8.5,54,1.7c5.3-2.8,8-4.8,12.8-8.4
					"/>
	<path fill="#EAA11F" d="M440.2,203.7c-4.5,7.6-24.9,25-24.9,25s4.9,13.9,6,20.5c1,6.6,1.6,10.9,1.6,10.9s-0.9,3.3-1,1
		c-0.1-2.2-8.2-29.9-8.2-31.7C413.6,227.8,440.2,203.7,440.2,203.7z"/>
		<g data-rellax-speed=".5" >
				<path fill="#FFFFFF" d="M1,296.4c0,0,97.6-38.7,273.3-7.4s224.8-9.3,257.4-30.1c27-17.2,44.7-16,153.1,35.6s71-32,188.6-51
			c1.1,94.4,2.1,134.9,2.1,134.9H0L1,296.4z"/></g>
</svg>