
<svg class="page-header-image" xmlns="http://www.w3.org/2000/svg" xmlns:xlink="http://www.w3.org/1999/xlink" x="0px" y="0px"
	 viewBox="0 0 842.3 299.6" enable-background="new 0 0 842.3 299.6" xml:space="preserve">
<linearGradient id="HEADER_SVGID_1_" gradientUnits="userSpaceOnUse" x1="11836.0693" y1="150.6823" x2="12592.4697" y2="150.6823" gradientTransform="matrix(1 0 0 -1 -11750.1699 302)">
	<stop  offset="0.1335" style="stop-color:#B7D1EE"/>
	<stop  offset="0.8107" style="stop-color:#B7D1EE"/>
</linearGradient>
<path opacity="0.39" fill="url(#HEADER_SVGID_1_)" enable-background="new    " d="M842.3,239.7V102.3C818.6,80.9,785.8,71.3,738,92
	c-69.6,30.1-97.2,9.6-97.2,9.6S541,34.7,462,76.9S306.8,182,247.5,137.2S142.3,78.7,85.9,104.5c0,63.7,0,135.2,0,135.2H842.3"/>
<path fill="#63A29E" d="M36.8,0c32,2.9,92,17.9,111.6,36.3c9,8.5,16.1,18.3,27.7,24.9c22.8,13,55.6,10.1,84,14.9
	c62.1,10.4,99.3,56.5,155.9,77.5c28.4,10.6,60.6,14.4,91.8,19.2c31.3,4.9,63.2,11.2,88,25.7c10.3,6,16,17.3,18.5,29.9h-20
	c-2.7-11.5-8.4-21.5-17.9-27.1c-24.8-14.5-56.8-20.9-88-25.7c-31.2-4.9-63.3-8.7-91.7-19.2c-56.7-21-93.8-67.1-155.9-77.5
	c-28.4-4.8-61.1-1.9-84-14.9c-11.6-6.6-18.7-16.4-27.7-24.9C109.5,20.7,68.8,2.9,36.8,0"/>
<path fill="#78BEBA" d="M0.8,9.2c43.2-23.3,99.9,2,128,28.8c8.9,8.6,16.2,18.3,27.8,24.9c22.9,13,55.9,10.1,84.4,14.9
	c62.4,10.4,99.8,56.5,156.7,77.5c28.4,10.6,60.8,14.4,92.2,19.2c31.5,4.9,63.5,11.2,88.4,25.7c9.5,5.5,15.3,15.6,18,27.1H0l0-217"/>
<linearGradient id="HEADER_SVGID_2_" gradientUnits="userSpaceOnUse" x1="11746.6699" y1="148.3417" x2="11947.7715" y2="148.3417" gradientTransform="matrix(-1 0 0 -1 12589.4697 302)">
	<stop  offset="0.1335" style="stop-color:#B7D1EE"/>
	<stop  offset="0.8107" style="stop-color:#B7D1EE"/>
</linearGradient>
<path fill="url(#HEADER_SVGID_2_)" d="M644,137c19.3,2.5,37.4-0.3,54.1-11.4c53.4-35.5,93.8-28.3,144.7-7.9c0,50.5,0,89,0,89H641.7"/>
<path fill="#30899D" d="M307.6,236.6c4.8-11.4,5.6-34.7-6.4-42.2s-27.3-10.9-42.3-13.4c-15-2.5-30.5-4.5-44.2-10
	c-27.3-11-45.1-34.9-75-40.4c-13.7-2.5-29.5-1-40.5-7.8c-5.6-3.5-9-8.6-13.3-13c-9.5-9.6-23.9-16.1-39.4-17.6s-34.3,2-46.5,9.4
	c0.2,4.7,0.1,7.2,0.1,8.5l-0.1,128.8h305.4L307.6,236.6z"/>
<linearGradient id="HEADER_SVGID_3_" gradientUnits="userSpaceOnUse" x1="106.1946" y1="51.2405" x2="169.4508" y2="158.5531" gradientTransform="matrix(1 0 0 -1 0 302)">
	<stop  offset="0.1622" style="stop-color:#78BEBA"/>
	<stop  offset="0.3301" style="stop-color:#6EB5B4"/>
	<stop  offset="0.6135" style="stop-color:#549EA5"/>
	<stop  offset="0.9761" style="stop-color:#29798C"/>
	<stop  offset="1" style="stop-color:#26768A"/>
</linearGradient>
<path opacity="0.48" fill="url(#HEADER_SVGID_3_)" enable-background="new    " d="M0,238.9l305.8-0.1l2.2-2.2c4.8-11.4,5.6-34.7-6.4-42.2
	c-11.9-7.5-27.3-10.9-42.3-13.4c-15-2.5-30.5-4.5-44.2-10c-27.3-11-45.1-34.9-75-40.4c-13.7-2.5-29.5-1-40.5-7.8
	c-5.6-3.5-9.4-8-13.7-12.4c-9.5-9.6-23.6-16.6-39.1-18.1S12.2,95.1,0,102.6V238.9z"/>
<path fill="#26768A" d="M328.1,199c-13.7-7.9-10.9,3.5-28.5,0.2s-57.7-12.6-73.6-18.7c-31.6-12.1-48.7-37.9-83.6-44.9
	c-16-3.2-34.6-2.7-47.3-9.8c-6.4-3.6-6.8-13.8-11.8-18.3c4.9,4.5,5.6,5.7,12,9.3c12.7,7.2,31.4,8,47.4,11.2
	c34.9,7,32.4,25.4,66.7,33.9c22.4,5.5,53.8,18.2,71.4,21.5s35.6,7.4,49.2,15.3L328.1,199z"/>
<path fill="#FFFFFF" d="M576.5,133.6l-11.7,107.8l-366.4,2.7c0,0,24.2-35.8,43.6-38.9c19.4-3.1,18.1-3.1,16.3-20.2
	c-1.9-17.2,3.8-38.6,25.6-31.3c21.9,7.4,31.3,14.7,31.3,1.8c0,0-4.5-50.2,42.5-34.9s76.4,38.8,101.6,8.2S546.3,89.4,576.5,133.6z"/>
<linearGradient id="HEADER_SVGID_4_" gradientUnits="userSpaceOnUse" x1="842.3" y1="62.5" x2="842.3" y2="62.5" gradientTransform="matrix(1 0 0 -1 0 302)">
	<stop  offset="6.610577e-04" style="stop-color:#1A1C38"/>
	<stop  offset="0.242" style="stop-color:#1D1E3E"/>
	<stop  offset="0.561" style="stop-color:#24244F"/>
	<stop  offset="0.5833" style="stop-color:#252550"/>
</linearGradient>
<path fill="url(#HEADER_SVGID_4_)" d="M842.3,239.5"/>
<linearGradient id="HEADER_SVGID_5_" gradientUnits="userSpaceOnUse" x1="801.8503" y1="37.409" x2="508.3352" y2="125.2916" gradientTransform="matrix(1 0 0 -1 0 302)">
	<stop  offset="6.610577e-04" style="stop-color:#1A1C38"/>
	<stop  offset="0.242" style="stop-color:#1D1E3E"/>
	<stop  offset="0.561" style="stop-color:#24244F"/>
	<stop  offset="0.5833" style="stop-color:#252550"/>
</linearGradient>
<path fill="url(#HEADER_SVGID_5_)" d="M842.4,247.7l-632.6,4.2c0,0,27.8-32.7,50-35.5s20.8-2.8,18.6-18.5s4.3-35.3,29.4-28.5
	s35.8,13.4,35.8,1.7c0,0-3-71.9,90-29.8s118.9-27,177.4-27.5c33.1-0.9,44.8,31.3,83.8,56.2s99.6-58,147.2-58"/>
<path fill="#FFFFFF" d="M7.9,299.4H843c0,0-0.3-45.6-0.3-142.2c-120,19.3-51,109.4-161.7,56.9S552.4,160.5,524.8,178
	c-33.3,21.1-83.5,62.4-262.8,30.6C125.8,184.3,35.6,201.2,0,210.7v88.9L7.9,299.4z"/>
</svg>
