<!-- Generator: Adobe Illustrator 18.0.0, SVG Export Plug-In  -->
<svg version="1.1"
	 xmlns="http://www.w3.org/2000/svg" xmlns:xlink="http://www.w3.org/1999/xlink" xmlns:a="http://ns.adobe.com/AdobeSVGViewerExtensions/3.0/"
	 x="0px" y="0px" width="842.3px" height="299.6px" viewBox="0 0 842.3 299.6" enable-background="new 0 0 842.3 299.6"
	 xml:space="preserve">
<defs>
</defs>
<linearGradient id="SVGID_1_" gradientUnits="userSpaceOnUse" x1="12016.0723" y1="151.3546" x2="12766.459" y2="151.3546" gradientTransform="matrix(-1 0 0 1 12769.4697 0)">
	<stop  offset="0.1335" style="stop-color:#B7D1EE"/>
	<stop  offset="0.8107" style="stop-color:#B7D1EE"/>
</linearGradient>
<path opacity="0.39" fill="url(#SVGID_1_)" d="M3,239.7h750.4c0,0,0-71.5,0-135.2c-56-25.8-101.5-12.1-160.3,32.7
	s-134.4-18.1-212.8-60.3s-177.4,24.7-177.4,24.7s-27.4,20.5-96.4-9.6C59.1,71.3,26.5,80.9,3,102.3V239.7"/>
<path fill="#63A29E" d="M799.5,0c-32,2.9-72.7,20.7-92.3,39.1c-9,8.5-16.1,18.3-27.7,24.9c-22.9,13-55.6,10.1-84,14.9
	c-62.1,10.4-99.2,56.5-155.9,77.5c-28.4,10.5-60.5,14.3-91.7,19.2c-31.2,4.8-63.2,11.2-88,25.7c-9.5,5.6-15.2,15.6-17.9,27.1H222
	c2.5-12.6,8.2-23.9,18.5-29.9c24.8-14.5,56.7-20.8,88-25.7c31.2-4.8,63.4-8.6,91.8-19.2c56.6-21,93.8-67.1,155.9-77.5
	c28.4-4.8,61.2-1.9,84-14.9c11.6-6.6,18.7-16.4,27.7-24.9C707.5,17.9,767.5,2.9,799.5,0"/>
<path fill="#78BEBA" d="M836.3,10.3v217H242.9c2.7-11.5,8.4-21.6,17.9-27.1c24.8-14.5,56.7-20.8,88-25.7
	c31.2-4.8,63.4-8.6,91.7-19.2c56.6-21,93.8-67.1,155.9-77.5c28.4-4.8,61.2-1.9,84-14.9c11.6-6.6,18.8-16.3,27.7-24.9
	c28-26.8,84.4-52.1,127.4-28.8"/>
<linearGradient id="SVGID_2_" gradientUnits="userSpaceOnUse" x1="11933.292" y1="151.9572" x2="12154.8018" y2="151.9572" gradientTransform="matrix(-1 0 0 1 12769.4697 0)">
	<stop  offset="0.1335" style="stop-color:#B7D1EE"/>
	<stop  offset="0.8107" style="stop-color:#B7D1EE"/>
</linearGradient>
<path fill="url(#SVGID_2_)" d="M617.2,135.2c21.2,2.5,41.2-0.3,59.6-11.4c58.8-35.5,103.3-28.3,159.3-7.9c0,50.5,0,89,0,89H614.7"/>
<path fill="#30899D" d="M307.6,236.6c4.8-11.4,5.5-34.7-6.3-42.2c-11.8-7.5-27-10.9-41.9-13.4c-14.9-2.5-30.2-4.5-43.8-10
	c-27-11-44.7-34.9-74.3-40.4c-13.6-2.5-29.2-1-40.1-7.8c-5.5-3.5-8.9-8.6-13.2-13c-9.4-9.6-23.7-16.1-39-17.6s-34,2-46.1,9.4
	c0.2,4.7,0.1,7.2,0.1,8.5L2.9,238.9l302.5,0L307.6,236.6z"/>
<linearGradient id="SVGID_3_" gradientUnits="userSpaceOnUse" x1="107.8604" y1="250.408" x2="170.6478" y2="143.8907">
	<stop  offset="0.1622" style="stop-color:#78BEBA"/>
	<stop  offset="0.3301" style="stop-color:#6EB5B4"/>
	<stop  offset="0.6135" style="stop-color:#549EA5"/>
	<stop  offset="0.9761" style="stop-color:#29798C"/>
	<stop  offset="1" style="stop-color:#26768A"/>
</linearGradient>
<path opacity="0.48" fill="url(#SVGID_3_)" d="M2.9,238.9l303-0.1l2.2-2.2c4.8-11.4,5.5-34.7-6.3-42.2c-11.8-7.5-27-10.9-41.9-13.4
	c-14.9-2.5-30.2-4.5-43.8-10c-27-11-44.7-34.9-74.3-40.4c-13.6-2.5-29.2-1-40.1-7.8c-5.5-3.5-9.3-8-13.6-12.4
	c-9.4-9.6-23.4-16.6-38.7-18.1S15,95.1,2.9,102.6L2.9,238.9z"/>
<path fill="#26768A" d="M330.1,199c-13.7-7.9-10.9,3.5-28.5,0.2c-17.6-3.3-57.7-12.6-73.6-18.7c-31.6-12.1-48.7-37.9-83.6-44.9
	c-16-3.2-34.6-2.7-47.3-9.8c-6.4-3.6-6.8-13.8-11.8-18.3c4.9,4.5,5.6,5.7,12,9.3c12.7,7.2,31.4,8,47.4,11.2
	c34.9,7,32.4,25.4,66.7,33.9c22.4,5.5,53.8,18.2,71.4,21.5c17.6,3.3,35.6,7.4,49.2,15.3L330.1,199z"/>
<path fill="#FFFFFF" d="M576.5,133.6l-11.7,107.8l-366.4,2.7c0,0,24.2-35.8,43.6-38.9c19.4-3.1,18.1-3.1,16.3-20.2
	c-1.9-17.2,3.8-38.6,25.6-31.3c21.9,7.4,31.3,14.7,31.3,1.8c0,0-4.5-50.2,42.5-34.9s76.4,38.8,101.6,8.2S546.3,89.4,576.5,133.6z"/>
<linearGradient id="SVGID_4_" gradientUnits="userSpaceOnUse" x1="842.2848" y1="239.4702" x2="842.2848" y2="239.4702">
	<stop  offset="6.610577e-04" style="stop-color:#1A1C38"/>
	<stop  offset="0.242" style="stop-color:#1D1E3E"/>
	<stop  offset="0.561" style="stop-color:#24244F"/>
	<stop  offset="0.5833" style="stop-color:#252550"/>
</linearGradient>
<path fill="url(#SVGID_4_)" d="M842.3,239.5"/>
<linearGradient id="SVGID_5_" gradientUnits="userSpaceOnUse" x1="796.5178" y1="263.8424" x2="505.74" y2="176.7793">
	<stop  offset="6.610577e-04" style="stop-color:#1A1C38"/>
	<stop  offset="0.242" style="stop-color:#1D1E3E"/>
	<stop  offset="0.561" style="stop-color:#24244F"/>
	<stop  offset="0.5833" style="stop-color:#252550"/>
</linearGradient>
<path fill="url(#SVGID_5_)" d="M836.5,247.7l-626.7,4.2c0,0,27.5-32.7,49.5-35.5c22-2.8,20.6-2.8,18.4-18.5s4.3-35.3,29.1-28.5
	s35.5,13.4,35.5,1.7c0,0-3-71.9,89.2-29.8s117.8-27,175.7-27.5c32.8-0.9,44.4,31.3,83,56.2s99.7-60.8,145.8-58v126.7"/>
<path fill="#FFFFFF" d="M7.9,299.4h831.5c0,0-0.3-45.6-0.3-142.2c-119.5,19.3-50.8,109.4-161,56.9S550,160.5,522.5,178
	c-33.2,21.1-83.1,62.4-261.7,30.6C125.3,184.3,35.4,201.2,0,210.7v88.9L7.9,299.4z"/>
<linearGradient id="SVGID_6_" gradientUnits="userSpaceOnUse" x1="461.0429" y1="205.3153" x2="484.5109" y2="205.3153">
	<stop  offset="6.610577e-04" style="stop-color:#D03D47"/>
	<stop  offset="4.530404e-02" style="stop-color:#D33E48"/>
	<stop  offset="0.3709" style="stop-color:#E2444B"/>
	<stop  offset="0.6274" style="stop-color:#E8464C"/>
</linearGradient>
<polygon fill="url(#SVGID_6_)" points="484.5,238.8 484.5,193.9 473.9,183.9 461,171.8 461,238.7 "/>
<polygon fill="#191A55" points="520.3,262.1 520.3,234.6 508.1,226.7 493.3,217.2 493.3,262 "/>
<polygon fill="#F9B529" points="454.3,254.3 420.6,254.3 420.6,220.6 438.1,205 454.3,220.6 "/>
<polygon fill="#F4662D" points="107.4,207.9 107.4,176 93.1,166.8 76.1,155.7 76.1,207.8 "/>
<polygon fill="#F9B52B" points="135.8,224.5 113.2,224.5 113.2,201.9 125,191.3 135.8,201.9 "/>
<polygon fill="#1A1C38" points="162.5,231.8 139.8,231.8 139.8,209.1 151.7,198.6 162.5,209.1 "/>
<linearGradient id="SVGID_7_" gradientUnits="userSpaceOnUse" x1="45.4139" y1="215.8234" x2="68.5861" y2="215.8234">
	<stop  offset="6.610577e-04" style="stop-color:#D03D47"/>
	<stop  offset="4.530404e-02" style="stop-color:#D33E48"/>
	<stop  offset="0.3709" style="stop-color:#E2444B"/>
	<stop  offset="0.6274" style="stop-color:#E8464C"/>
</linearGradient>
<polygon fill="url(#SVGID_7_)" points="68.6,232.8 45.4,232.8 45.4,209.6 57.5,198.9 68.6,209.6 "/>
<polygon fill="#F9B52B" points="412.6,261.4 392.5,261.4 392.5,241.3 403,232 412.6,241.3 "/>
<polygon fill="#F9B52B" points="582,256.8 561.8,256.8 561.8,236.7 572.3,227.3 582,236.7 "/>
<polygon fill="#F9B52B" points="732,270.4 711.8,270.4 711.8,250.3 722.3,240.9 732,250.3 "/>
<polygon fill="#1A1C38" points="218.8,253.6 198.7,253.6 198.7,233.5 209.2,224.1 218.8,233.5 "/>
<polygon fill="#F4662D" points="243.8,256.8 223.7,256.8 223.7,236.7 234.2,227.3 243.8,236.7 "/>
<polygon fill="#F4662D" points="556.5,254.6 530,254.6 530,228.1 543.8,215.8 556.5,228.1 "/>
<polygon fill="#1A1C38" points="811.7,254.6 777.6,254.6 777.6,220.5 795.4,204.6 811.7,220.5 "/>
<linearGradient id="SVGID_8_" gradientUnits="userSpaceOnUse" x1="735.6931" y1="246.7129" x2="768.0557" y2="246.7129">
	<stop  offset="6.610577e-04" style="stop-color:#D03D47"/>
	<stop  offset="4.530404e-02" style="stop-color:#D33E48"/>
	<stop  offset="0.3709" style="stop-color:#E2444B"/>
	<stop  offset="0.6274" style="stop-color:#E8464C"/>
</linearGradient>
<polygon fill="url(#SVGID_8_)" points="768.1,270.4 735.7,270.4 735.7,238.1 752.6,223 768.1,238.1 "/>
</svg>
