<svg class="section--home--intro--image" xmlns="http://www.w3.org/2000/svg" width="818" height="450" viewBox="0 0 818 450">
  <linearGradient id="SIGN_a" gradientUnits="userSpaceOnUse" x1="495.459" y1="101.272" x2="814.078" y2="419.89">
    <stop offset=".015" stop-color="#81b0f9" stop-opacity="0"/>
    <stop offset=".531" stop-color="#b6d4fe" stop-opacity=".6"/>
    <stop offset="1" stop-color="#b6d4fe"/>
  </linearGradient>
	<g data-rellax-speed="-.5" >
	  <path fill="url(#SIGN_a)" d="M819.4 50.4C788.9 23 748.8-5.9 701.6 1c-78.4 11.5-188.2 145.7-246.3 140.4L434 414.6h385.4V50.4z"/>
	  <path opacity=".27" fill="url(#SIGN_c)" d="M536.3 304.6c8.4-20.4 9.7-62.3-11-75.8-20.7-13.6-47.5-19.5-73.6-24-26.1-4.5-53-8.1-76.8-18-47.4-19.7-78.5-62.8-130.4-72.6-23.8-4.5-51.2-1.7-70.3-13.9-9.7-6.2-15.7-15.4-23.2-23.3-16.4-17.2-41.7-28.8-68.4-31.5-26.8-2.7-54.8 3.6-76 17 0 2.4-4.9 4.7-4.9 7.1v239h530.7l3.9-4z"/>
	</g>
  <linearGradient id="SIGN_b" gradientUnits="userSpaceOnUse" x1="447.741" y1="162.906" x2="503.593" y2="101.255">
    <stop offset=".055" stop-color="#eaa11f"/>
    <stop offset=".154" stop-color="#f1aa23"/>
    <stop offset=".335" stop-color="#f7b228"/>
    <stop offset=".617" stop-color="#f9b529"/>
  </linearGradient>
	<g data-rellax-speed="-.75" >
	  <circle fill="url(#SIGN_b)" cx="477.7" cy="129.8" r="68.9"/>
	</g>
  <linearGradient id="SIGN_c" gradientUnits="userSpaceOnUse" x1="271.818" y1="308.587" x2="271.818" y2="44.84">
    <stop offset=".134" stop-color="#b6d4fe"/>
    <stop offset=".811" stop-color="#b6d4fe"/>
  </linearGradient>

  <linearGradient id="SIGN_d" gradientUnits="userSpaceOnUse" x1="26.957" y1="196.22" x2="266.296" y2="196.22">
    <stop offset="0" stop-color="#eaa11f"/>
    <stop offset=".258" stop-color="#f9b529"/>
  </linearGradient>
	<g data-rellax-speed="-.25" >
	  <path fill="url(#SIGN_d)" d="M30.5 343.1L27 49.3l239.3 141.8-3 145.7"/>
		<path fill="url(#SIGN_e)" d="M219.6 376V273.1L707 56.3v319z"/>
	</g>
  <linearGradient id="SIGN_e" gradientUnits="userSpaceOnUse" x1="219.643" y1="216.142" x2="708.156" y2="216.142">
    <stop offset=".163" stop-color="#d13d47"/>
    <stop offset=".353" stop-color="#e04149"/>
    <stop offset=".539" stop-color="#f2454b"/>
  </linearGradient>
  <path fill="#FFF" d="M393 413.4c6.1-12.2 7.1-37.1-8-45.2-15.2-8.1-33.7-8.2-52.8-10.9s-39.5-3.4-56.9-9.3c-34.6-11.7-57.6-42.2-95.5-48.1-17.4-2.7-37.4-1-51.4-8.3-7.1-3.7-11.4-9.2-17-13.9-12-10.3-30.4-17.2-50-18.8S21.3 261 5.9 269c0 1.4-3.6 2.8-3.6 4.2v142.4h387.8l2.9-2.2z"/>
  <linearGradient id="SIGN_f" gradientUnits="userSpaceOnUse" x1="1.816" y1="345.296" x2="407.667" y2="345.296">
    <stop offset=".162" stop-color="#77bfbb"/>
    <stop offset=".33" stop-color="#6db6b5"/>
    <stop offset=".614" stop-color="#539fa6"/>
    <stop offset=".976" stop-color="#28798d"/>
    <stop offset="1" stop-color="#25768b"/>
  </linearGradient>
  <path fill="url(#SIGN_f)" d="M403.4 421.5c6.3-12.2 7.3-37.1-8.3-45.2-15.6-8.1-35.6-11.6-55.3-14.3-19.6-2.7-39.8-4.8-57.7-10.7-35.6-11.7-58.9-37.4-97.9-43.2-17.9-2.7-35.3-1.1-49.7-8.4-7.3-3.7-14.9-9-20.6-13.8-12.3-10.3-31.3-17.2-51.4-18.8s-41.2 2.1-57.1 10.1c0 1.4-3.7 2.8-3.7 4.2v142.4h398.6l3.1-2.3z"/>
  <path fill="#25727F" d="M100.6 282.7c13.4 7.7 47.2 25.9 65.1 28.6 39 5.8 71.4 31.2 106.9 42.9 17.8 5.9 38 8 57.7 10.7 19.6 2.7 39.7 6.2 55.3 14.3 0 0 24.9 15.4 11.5 40.7 6.3-12.2 7.3-37.1-8.3-45.2-15.6-8.1-35.6-11.6-55.3-14.3-19.6-2.7-39.8-4.8-57.7-10.7-35.6-11.7-58.5-41.3-97.5-47.2-9.6-1.4-40.8 1.2-57.4-11.8 0 0-60.3-43.3-120.9-10.6 0 .2 58.2-22 100.6 2.6z"/>
  <path fill="#FFF" d="M820 241.1L818.9 427l-637.8 6s11.4-31.4 46.9-37.4 33.2-6 29.8-39.8c-3.4-33.8 6.9-76 46.9-61.5 40.1 14.5 57.2 28.9 57.2 3.6 0 0-8.2-98.7 77.9-68.6s139.9 76.3 186 16.1c46.2-60.1 139-91.3 194.2-4.3z"/>
  <linearGradient id="SIGN_g" gradientUnits="userSpaceOnUse" x1="333.195" y1="585.088" x2="741.083" y2="177.2">
    <stop offset=".159" stop-color="#191a55"/>
    <stop offset="1" stop-color="#191a38"/>
  </linearGradient>
  <path fill="url(#SIGN_g)" d="M820 259.1l-1.1 168.4-637.8 5.5s11.4-28.4 46.9-33.9 33.2-5.5 29.8-36.1c-3.4-30.6 19-68 59.1-54.9s45.1 25.4 45.1 2.4c0 0-8.2-89.4 77.9-62.2s139.9 69.1 186 14.6c46-54.4 138.8-82.7 194.1-3.8z"/>
  <linearGradient id="SIGN_h" gradientUnits="userSpaceOnUse" x1="2939.553" y1="503.14" x2="3044.96" y2="324.319" gradientTransform="matrix(-1 0 0 1 3557.501 0)">
    <stop offset=".162" stop-color="#77bfbb"/>
    <stop offset=".33" stop-color="#6db6b5"/>
    <stop offset=".614" stop-color="#539fa6"/>
    <stop offset=".976" stop-color="#28798d"/>
    <stop offset="1" stop-color="#25768b"/>
  </linearGradient>
	<g data-rellax-speed=".25" >
		<path fill="#2E8A9E" d="M275.8 467.5c-8.5-14.7-9.9-44.9 11.2-54.7s48.3-14.1 74.9-17.4c26.6-3.3 53.9-5.8 78.1-13 48.2-14.2 79.8-45.3 132.7-52.4 24.2-3.2 52.1-1.3 71.5-10.1 9.9-4.5 15.9-11.1 23.6-16.8 16.7-12.4 42.4-20.8 69.6-22.8 27.3-1.9 55.8 2.6 77.3 12.3 0 1.7 5 3.4 5 5.1L817 470.3H279.8l-4-2.8z"/>
	  <path opacity=".48" fill="url(#SIGN_h)" d="M274.8 467.5c-8.5-14.7-9.9-44.9 11.2-54.7s48.3-14.1 74.9-17.4c26.6-3.3 53.9-5.8 78.1-13 48.2-14.2 79.8-45.3 132.7-52.4 24.2-3.2 52.1-1.3 71.5-10.1 9.9-4.5 15.9-11.1 23.6-16.8 16.7-12.4 42.4-20.8 69.6-22.8 27.3-1.9 55.8 2.6 77.3 12.3 0 1.7 5 3.4 5 5.1L817 470.3H278.8l-4-2.8z"/>
		<path fill="#25727F" d="M653.2 315c-19.5 8.8-51 7.6-75.2 10.9-52.9 7.1-81.4 38.1-129.6 52.3-24.2 7.1-51.5 9.7-78.1 13-26.6 3.3-68.1 9.5-88.6 24.3l88.6-14.9c26.6-3.3 53.9-5.8 78.1-13 48.2-14.2 79.8-45.3 132.7-52.4 24.2-3.2 46-7.2 65.5-16l6.6-4.2z"/>
	</g>

  <path fill="#FFF" d="M346.6 400.2s-11.3-4.7-13.7-2.7-15.6 2.7-21 .7c-5.3-2-5.1 3.1-5.2 4.9-.1 1.8 10.6 7.7 16.2 9 5.6 1.3 21.2 4.4 21.2 4.4s4.6 2.2 7-8.6c2.5-10.7-4.5-7.7-4.5-7.7zM427.5 388.2s-11.9 2.7-12.7 5.7-11.2 11.2-16.7 12.7-2.4 5.5-1.5 7c.9 1.5 13.1.2 18.5-2 5.4-2.1 19.9-8.7 19.9-8.7s5-.8.8-11c-4.4-10.2-8.3-3.7-8.3-3.7z"/>
  <path fill="#F4662D" d="M394.2 275.7s11.3 60.2 14.6 66.8c3.3 6.6 23.5 45.2 23.5 45.2s-8 12.2-16 11.8c-8-.5-21.6-34.8-21.6-34.8s-17.4-29.2-20.7-58.8c-5.6 19.8-15.5 44.7-15.5 50.3s-3.3 43.3-3.3 43.3-14.6 3.8-25.9-3.3c.5-11.3 2.4-45.6 6.1-57.4 3.8-11.8 12.2-63 12.2-63h46.6z"/>
  <path fill="#191A55" d="M355.5 179.3c.3-.1.5-.2.8-.2-4.1 2.6-7.9 5-10.6 8.4-3.1 3.9-5.3 8.3-9.2 11.8-7.7 6.9-20 8.9-30.7 9.4-2.5 4.1.9 8.1.8 12.4 0 .7-.1 1.4.2 1.9.7 1.1 2.8 1.1 4.6.9 15.6-1.7 32.4-6.1 44-15.8 4.9-4.2 8.6-9 12.2-13.9M375.1 167.6s-5.3-12.1-.9-12.3c8.5-.4 7.4-14.8 6.7-21.3-.7-6.5-8.9-13.5-21.5-12.2-12.6 1.3-11.2 14.6-11.2 14.6-1.4.2-3.6 7.4-3.6 8.6s.8 1.2.8 1.2c.4 0 2.2.1 2.3.8s-.5 1.2-.7 1.7c-.1.5-.4 1.3.1 1.5-.2.3-.7.9-.4 1.7.3.8.6.5.4 1.2-.2.7-.7 1.5-.5 2.6.2 1 .6 1.8 2.9 1.8s4.2-1.5 5.4-.3 1.6 1.6 1.7 4.9c0 1-.5 2-.4 3s.4 2 1.1 2.6c1.4 1.1 3.4.5 4.9-.2 2.5-1.2 10.3 3.9 12.4 2 .3-.3.6-.6.8-1 .2-.3.1-.9-.3-.9z"/>
  <path fill="#FFF" d="M343.7 290.1c-1.7-38 5.7-74.7 9.2-112.6.2-2.4.4-4.8.7-7.1.1-1.3.3-2.8 1.2-3.8 1.1-1.2 2.9-1.4 4.5-1.4 4.8-.2 9.6-.5 14.4-.7.5 0 1 0 1.5.2 1 .5 1.2 1.8 1.2 3 .1 2.9 0 5.7-.1 8.6 4.2 4.1 7.3 9.3 9.3 14.8 2.2 6.2 2.8 12.9 3.4 19.4 2.2 24 4.3 48.1 6.5 72.1.1 1.5-.5 2.6-.5 4.1-15.1 4.8-31.1 7-46.9 6.6-1.3 0-2.6-.1-3.7-.7s-.6-1.2-.7-2.5z"/>
  <path fill="#191A55" d="M355.8 269.9c1.5.4 2.9.8 4.4 1.2 2 .6 4 1.1 6.1 1 .1 0 .3 0 .4-.1.1-.1.1-.2.2-.4.2-1.5-.2-3-.7-4.5-.9-2.6-2.6-4.7-5.7-4.2-2.5.4-4.1 5-4.7 7z"/>
  <path fill="#191A55" d="M381.6 187.6c-2.2-1.3-4.6-2.3-7.1-2.4-2.5 0-5.2 1.1-6.7 3.5-1.7 2.8-1.3 6.5-1 9.8 2.2 21.1-.7 43.1-8.3 63.2 1.4 3.9 2.9 6.7 6 9 .9.7 1.8 1.3 2.9 1.3 2.3 0 4-2.6 5.2-4.9 10.9-21.7 15.6-47 13.1-70.9-.3-3.2-1.5-7.1-4.1-8.6z"/>
  <path fill="#F4662D" d="M367.4 270.4c2.5.8 5.1 1 7.7 1.3 0 .9-.2 2.1-.7 2.9-7.3-1.2-17.3-2.8-24.6-4-1.3-.2-.6-1.8-.8-2.7-.1-.3.2-.6.6-.5l17.8 3z"/>
  <path fill="#E25A2B" d="M355.2 399.4s3.8-43.6 4.1-45.8 17.7-50.7 17.4-52.2c-.2-1.5-11.9 20.4-15.4 30.6s-6.5 15.2-6.5 18.7-3.5 47-.5 48"/>


  <path fill="#FFF" d="M160.9 153.8h131.7v207.5H160.9z"/>
  <g>
    <path fill="#F9B529" d="M223.3 263.2v-48.9l41.2-8.2v56.4z"/>
    <path fill="#F2454B" d="M186.7 276.4v-52.5l65.9 24 .5 22.1"/>
    <path fill="#2E8A9E" d="M268.9 301.4l.2-50.6-86 22.7V296"/>
  </g>
  <path fill="#191A55" d="M292.8 221.8c3.7-.2 18.7 1.3 18-5-.6-4.9-10.3-5-13.8-6.1-1.4-.5-5-3-6.4-2.5-1.4.5.9 4 2.1 4.9"/>

	<g data-rellax-speed=".5" >
		<path fill="#FFF" d="M212.6 400.1C116.1 367.8 47.9 386.6 0 420v83.8l820.9-11.7s-2.9-12.7.2-120.9c0 0-218.8-53.1-352.7 16-132.9 68.6-255.8 12.9-255.8 12.9z"/>
		<g>
			<path fill="#FFF" d="M121.2 198.2c2 10.5 1.7 21.3 1.4 32-3.3-2.6-4.2-7.1-4.9-11.2-.8-4.8-1.7-9.6-2.5-14.4-.6-3.3-2.9-13.4 1.1-15.6 4.3-2.5 4.5 6.9 4.9 9.2z"/>
			<path fill="#191A38" d="M75.5 273.5s1.5 16.8 0 28.1-6.2 22.8-4.6 40.8-.9 38.4-2.9 43 36.8 5.3 36.8 5.3 7.2-4.6-1-7.7-21.1-7.2-20-13.4 8.7-51.4 10.8-58.6c2.1-7.2 2.6-39.6 2.6-39.6l-21.7 2.1zM101.5 273.3s5.8 27.7 5.8 32.5-.3 16.1-.3 22.3c0 6.2 7.8 36.7 7.8 39.1 0 2.4.4 20.9.4 20.9h29.5s8.7.4 8.4-1c-.5-2.4.8-9.6-16.7-10.7 0 0-6.3 0-7.1-6.8-1.1-9.9-3.1-53.4-2.4-60.6.7-7.2-3.1-37-3.1-37l-22.3 1.3z"/>
			<path fill="#FFF" d="M107.3 159.7c-.1-5.9 1.7-10.5 6.8-9.9 5.1.6 5.5-.6 5.7-1.4s-.3-2-.3-2.6c0-.5.4-.8.7-1.4.3-.6-.1-1.4-.2-1.8.6-.3.1-1.6.1-1.6s-1.3-2.3.9-2.2c2.2.1 2.2-.7 1.9-1.2-.4-.5-1.2-2.1-1.6-3.1-.4-1-4.3-10.2-4.3-10.2-2.7-1.8-5.5-2.4-8.7-1.9-4.6.8-9 2.4-12.7 5.1s-6.7 6.7-7.7 11.2c-.6 2.4-.6 4.9-.6 7.3 0 1.8 0 3.6.6 5.2.9 2.3 3.1 3.9 4.9 5.7 1.8 1.8 3.2 4.4 2.4 6.8-.2.6-.6 1.3-.5 1.9.1.5.5.9.9 1.2 1.7 1.6 3.5 3.2 5.7 3.8 2.2.6 5.1-.2 5.9-2.4.9-2.3.1-5.8.1-8.5z"/>
			<path fill="#F2454B" d="M62.1 275.7c.2 6.1-.8 12.4 1.6 18.1 12.9-3 24.5-10 37.5-12.6 10.1-2 21-1.2 30.4-5.6.8-.4 1.7-.9 2.1-1.7.3-.8.1-1.6-.1-2.4-6-24.5-14.8-48.9-17-74.1 1.3-1.6 2.5-3.2 3.8-4.8.5-.6.9-1.2 1.1-1.9.1-.6 0-1.2-.1-1.8-.6-3.9-1.2-7.9-1.8-11.8-.6-3.6-1.2-7.3-3.4-10.2s-5.7-6.7-8.8-4.8c-1.1 2.1-5.7 5-8 4.6-2.4-.4-4.6-1.5-7-1.8-2.4-.3-4.8.3-7.1.9-3 .8-6.1 1.5-8.6 3.3-4 2.9-6 7.8-7.7 12.4-3.6 9.8-7.3 20-6.4 30.4.1.8.2 1.6.8 2.1.7.7 1.8.6 2.7.7 2.3.3 4.3 2.1 4.9 4.4.1 0-9 52.9-8.9 56.6z"/>
			<path fill="#FFF" d="M102.3 156c2.3 2.1.6 5.3.2 8.4-.4 3-4.6 3.5-7.4 5.1-1.1.6-2.4 1.2-2.9 2.3-.3.8-.1 1.6 0 2.4.3 2.1 0 4.5-1.4 6.2-1.4 1.7-4.1 2.6-6.1 1.6s-3.2-3.5-5.4-3.7c-2.6-.3-4.5 2.8-7.1 2.8-2.6 0-4.1-2.8-4.3-5.2-.4-5.6-3.7-11.1.8-14.7 1.7-1.3 3.5-2.5 4.9-4.2s2-5.7.9-7.5c-.4-.7-1.2-1.3-1.7-2-1.4-2-1-4.9.3-6.9s3.6-3.5 5.8-4.8c1.5-.9 3-1.7 3.9-3.1 2.5-4 1.1-9.2 3.5-13.3 1.3-2.2 4.1-3.1 6.7-3.5 2.6-.4 7.8.4 10.1-.8 1.7-.9 4.9-3.9 6.8-4.3 1.9-.4 3.9.4 5.5 1.5s4.4 4.8 6.1 5.8c1 .6 2.2 1 2.8 2 .8 1.2.2 2.9-.8 4-1.1 1-5 5.5-9.9 1 1.2 4.3-1.3 7.9-5 9.2-2 .7-4.2.9-6.2 1.8-2 .8-3.8 2.4-3.9 4.5 0 1.8 3.7 6.2 2.5 7.7-.4.5-1 .8-1.6 1.1-2.3 1.4.9 4.7 2.9 6.6z"/>
			<path fill="#191A55" d="M105.8 156.5c2.3 2.1.6 5.3.2 8.4-.4 3-4.6 3.5-7.4 5.1-1.1.6-2.4 1.2-2.9 2.3-.3.8-.1 1.6 0 2.4.3 2.1 0 4.5-1.4 6.2-1.4 1.7-4.1 2.6-6.1 1.6s-3.2-3.5-5.4-3.7c-2.6-.3-4.5 2.8-7.1 2.8-2.6 0-4.1-2.8-4.3-5.2-.4-5.6-3.7-11.1.8-14.7 1.7-1.3 3.5-2.5 4.9-4.2 1.3-1.7 2-5.7.9-7.5-.4-.7-1.2-1.3-1.7-2-1.4-2-1-4.9.3-6.9 1.4-2.1 3.6-3.5 5.8-4.8 1.5-.9 3-1.7 3.9-3.1 2.5-4 1.1-9.2 3.5-13.3 1.3-2.2 4.1-3.1 6.7-3.5 2.6-.4 7.8.4 10.1-.8 1.7-.9 4.9-3.9 6.8-4.3 1.9-.4 3.9.4 5.5 1.5s4.4 4.8 6.1 5.8c1 .6 2.2 1 2.8 2 .8 1.2.2 2.9-.8 4-1.1 1-5 5.5-9.9 1 1.2 4.3-1.3 7.9-5 9.2-2 .7-4.2.9-6.2 1.8-2 .8-3.8 2.4-3.9 4.5 0 1.8 3.7 6.2 2.5 7.7-.4.5-1 .8-1.6 1.1-2.3 1.4.9 4.7 2.9 6.6z"/>
			<path fill="#FFF" d="M124.1 203.4c-19.7 6.3-27.6 10.6-43.6 23.6-.5.4-1.1.8-1.7.7-.9-.2-1.2-1.4-1.2-2.4-.1-4.4-.3-8.8-.4-13.2-4.5 1-7.8 1.4-12.3 2.4-.1 6.2.5 12.3 1.7 18.3.2 1 .5 2.1 1.2 2.9.9 1 2 2.7 3.4 2.7 7.9.4 16-4.2 22.7-8.3 6.7-4.2 12.7-9.4 19.1-14 10-7.1 10-8.8 21.7-12.2 2.2-.7 2.7-.2 5-.6 2.3-.4 5.6-5.2 3.5-4.8-6.6.4-9.3 1.7-14 .9-5.2.5-4.3 2-5.1 4z"/>
			<path fill="#D13D47" d="M125.9 277.9c3.5-1.1 7.2-2.7 7.9-4.2 1.2-2.8-1.9-9.4-1.9-9.4l-13.4-52.2c-.5 3.2 9.9 56.5 9.9 59.7s-20.6 8.8-24.1 8.8c0 0 19.6-2 21.6-2.7z"/>
		</g>
	</g>
</svg>
