<svg class="section--home--about--image" viewBox="10 0 830 431.5">



<linearGradient id="WO_SVGID_1_" gradientUnits="userSpaceOnUse" x1="702.3348" y1="69.9628" x2="38.7674" y2="420.8895" gradientTransform="matrix(-1 0 0 1 828.9566 0)">
	<stop offset="1.470353e-02" style="stop-color:#81B0F9;stop-opacity:0"></stop>
	<stop offset="0.5315" style="stop-color:#B6D4FE;stop-opacity:0.6"></stop>
	<stop offset="1" style="stop-color:#B6D4FE"></stop>
</linearGradient>
<g data-rellax-speed="-.5" style="transform: translate3d(0px, 9px, 0px);">
<path fill="url(#WO_SVGID_1_)" d="M39,380.5l-9.9-278.6c22.2-9.7,80-15.2,116.9-16.4c125.2-4,137.1,151.1,221,107s85-98,158-67
	c47.7,20.3,100-70.6,164.3-83.3c91.2-18,152,58.9,152,58.9v287.6l-799.1-1.7L39,380.5z"></path>
</g>
<path fill="#FFFFFF" d="M12.3,315.7l0.3-217.9c0,0,72.4-86.7,110.7,33.3c0,0,28.7,6.4,64.9,93.4c0,0,130.7-20.7,159.7,91.6"></path>
<linearGradient id="WO_SVGID_2_" gradientUnits="userSpaceOnUse" x1="4.3498" y1="195.7844" x2="340.0002" y2="195.7844">
	<stop offset="6.610577e-04" style="stop-color:#191A38"></stop>
	<stop offset="0.3581" style="stop-color:#191A4A"></stop>
	<stop offset="0.6744" style="stop-color:#191A55"></stop>
</linearGradient>
<path fill="url(#WO_SVGID_2_)" d="M4.3,319.7l0.3-217.9c0,0,72.4-86.7,110.7,33.3c0,0,28.7,6.4,64.9,93.4c0,0,130.7-20.7,159.7,91.6"></path>
<path fill="#FFFFFF" d="M291.4,294.5c33.1-15.7,65.5-67.9,89.7-50c48.7,36,68.7-16.1,94-20.6c35.9-6.4,59.9,20.9,59.9,20.9v102.3
	l-314.7-0.6l-1.3-2.3"></path>
<linearGradient id="WO_SVGID_3_" gradientUnits="userSpaceOnUse" x1="550.0873" y1="258.1112" x2="331.5003" y2="373.7106" gradientTransform="matrix(-1 0 0 1 828.9566 0)">
	<stop offset="0" style="stop-color:#EAA11F"></stop>
	<stop offset="0.2579" style="stop-color:#F9B529"></stop>
</linearGradient>
<path fill="url(#WO_SVGID_3_)" d="M274.9,302.5c33.1-15.7,65.5-67.9,89.7-50c48.7,36,68.7-16.1,94-20.6c35.9-6.4,59.9,20.9,59.9,20.9
	v102.3l-314.7-0.6l-1.3-2.3"></path>
<polygon fill="#EAA11F" points="805.8,141.4 816.5,152.1 816.5,311 803,311 "></polygon>
<path fill="#FFFFFF" d="M778.7,40.4c-2.5,2.1-5.9,6-8.3,3.7c-2.6-2.4-4.8-5.3-7.8-7.2c-2.9-1.7-6.4-2.3-9.7-2.8
	c-12.2-1.7-25.4-2.3-36.2,3.7c-9.1,5-15.3,14.1-24.2,19.4c-8.7,5.3-19.8,6.4-29.5,3.1c-4.4-1.5-8.5-3.9-12.8-5.8
	c-16.8-7.2-37.4-5-52.3,5.5c-5,3.5-9.5,7.9-15.2,10.2c-7,2.8-14.8,2-22.4,2.5s-15.6,3.5-19.1,10.2c-6.9-0.6-13.5,4.1-17.1,10
	c-3.6,5.9-4.8,13-5.8,19.9c-0.3,2.3-0.6,4.7,0.3,6.8c1.4,3.2,5.2,4.5,8.7,5.2c6.3,1.2,12.9,1.1,19.2-0.2c6.8-1.4,14-4.3,20.5-1.8
	c7.6,3,10.6,11.9,12.7,19.8c5.2-0.4,9.1-7.5,14.1-5.8c4.1,1.3,4.2,7.3,2,11c-2.2,3.7-6,6.4-7.5,10.4c-1.2,3-1,6.3-0.8,9.6
	c0.4,6.6,0.7,13.2,1.1,19.8c0.1,2.4,0.3,4.9,1.5,7.1c2.3,4.1,7.6,5.4,12.3,5.2c14.1-0.5,26-10.7,34.4-22.1c5.1-6.9,9.6-14.8,17.1-19
	c7.8-4.4,17.4-4.1,26.3-5.2c12.8-1.5,26.3-7.2,32.3-18.6c4.2-8,4.4-18.3,10.8-24.8c5.5-5.6,14-6.8,21.9-6.8c7.8,0,13.3-3.2,20.6-6
	c6.3-2.4,12.8-1.1,18.8-4.2c2.4-1.2,4.8-2.7,6.5-4.8c3.7-4.4,4.4-10.9,8.4-15c3.8-3.9,9.6-4.9,14.7-6.9c9.5-3.8,17-12.2,19.8-22
	c1.5-5.4,3.4-9.9,2.3-15.4c-1.1-5.6-3.1-11.3-7.1-15.3s-10.4-6.1-15.7-3.8c-0.8,0.4-1.7,0.9-2.2,1.6c-1.4,2.1-0.1,4.8,0.1,7.3
	c0.5,4.7-3.2,9-7.4,11.1s-9.1,2.6-13.7,3.6C785.7,34.6,782.4,37.4,778.7,40.4z"></path>
<linearGradient id="WO_SVGID_4_" gradientUnits="userSpaceOnUse" x1="435.0002" y1="188.0044" x2="668.6959" y2="188.0044">
	<stop offset="6.610577e-04" style="stop-color:#D13D47"></stop>
	<stop offset="0.1477" style="stop-color:#DD4048"></stop>
	<stop offset="0.416" style="stop-color:#EC444A"></stop>
	<stop offset="0.6274" style="stop-color:#F2454B"></stop>
</linearGradient>
<polygon fill="url(#WO_SVGID_4_)" points="668.7,280.9 668.7,157.6 562.6,122.1 435,79.5 435,296.5 "></polygon>
<linearGradient id="WO_SVGID_5_" gradientUnits="userSpaceOnUse" x1="496.8322" y1="222.8808" x2="805.8159" y2="222.8808">
	<stop offset="0" style="stop-color:#EAA11F"></stop>
	<stop offset="0.2579" style="stop-color:#F9B529"></stop>
</linearGradient>
<polygon fill="url(#WO_SVGID_5_)" points="737.7,154.1 737.7,139.7 729.4,139.7 729.4,155.6 722.4,156.8 722.4,139.7 714.1,139.7
	714.1,158.2 604.8,180 505.6,258.5 496.8,284.2 805.8,306 805.8,142.2 "></polygon>
<rect x="768.1" y="168.6" fill="#FFFFFF" width="5.4" height="5.9"></rect>
<rect x="779" y="168.6" fill="#FFFFFF" width="5.4" height="5.9"></rect>
<rect x="768.1" y="181.9" fill="#FFFFFF" width="5.4" height="5.9"></rect>
<rect x="779" y="181.9" fill="#FFFFFF" width="5.4" height="5.9"></rect>
<path fill="#FFFFFF" d="M595.9,212.1c-12.5,6.2-24.7,1.1-32.2-10.5c-19.3,0.1-37.5,15.9-49,31.1c-30.2,40.1-154.7,98.3-204,126.7
	l59.3,67l141.1-57.4"></path>
<path fill="#2E8A9E" d="M842.4,308.4c-55.5,1-50.9-20-100.3-44.9c-12.1-6.1-24.3-12.2-35.1-20.4c-14.4-10.8-26.2-24.8-41.2-34.7
	c-15-9.9-35.4-15-51-6c-5.3,3.1-9.7,7.6-15.2,10.4c-11.7,5.9-27.8,2.3-34.8-8.7c-18.1,0.1-31,16.6-41.8,30.9
	c-28.3,37.7-229.1,134.4-273.8,147.8l51.1,67.1l541.4-6.1L842.4,308.4"></path>
<linearGradient id="WO_SVGID_6_" gradientUnits="userSpaceOnUse" x1="304.6667" y1="323.3274" x2="842.4247" y2="323.3274">
	<stop offset="0.1622" style="stop-color:#77BFBB"></stop>
	<stop offset="0.3301" style="stop-color:#6DB6B5"></stop>
	<stop offset="0.6135" style="stop-color:#539FA6"></stop>
	<stop offset="0.9761" style="stop-color:#28798D"></stop>
	<stop offset="1" style="stop-color:#25768B"></stop>
</linearGradient>
<path opacity="0.48" fill="url(#WO_SVGID_6_)" d="M842.4,308.4c-55.5,1-50.9-20-100.3-44.9c-12.1-6.1-24.3-12.2-35.1-20.4
	c-14.4-10.8-26.2-24.8-41.2-34.7c-15-9.9-35.4-15-51-6c-5.3,3.1-9.7,7.6-15.2,10.4c-11.7,5.9-27.8,2.3-34.8-8.7
	c-18.1,0.1-26.6,17.6-37.3,32c-28.3,37.7-185.1,118-222.7,146.7l31.2,66.1l505.6-5L842.4,308.4"></path>
<polygon fill="#FFFFFF" points="673.5,271.3 673.5,248 662.3,241.3 648.9,233.2 648.9,271.2 "></polygon>
<polygon fill="#191A55" points="695.1,286.4 695.1,268 686.9,262.7 677.1,256.4 677.1,286.3 "></polygon>
<polygon fill="#F9B529" points="653,280.5 632.3,280.5 632.3,259.8 643.1,250.2 653,259.8 "></polygon>
<polygon fill="#191A55" points="629.5,280.7 608.8,280.7 608.8,260 619.6,250.3 629.5,260 "></polygon>
<polygon fill="#F4662D" points="497.7,297 497.7,277 488.8,271.3 478.1,264.4 478.1,296.9 "></polygon>
<polygon fill="#FFFFFF" points="522.7,309.3 500.2,309.3 500.2,286.8 511.9,276.3 522.7,286.8 "></polygon>
<polygon fill="#FFFFFF" points="481.6,306.5 467.1,306.5 467.1,291.9 474.7,285.1 481.6,291.9 "></polygon>
<polygon fill="#FFFFFF" points="615.1,292.1 601.7,292.1 601.7,278.6 608.7,272.4 615.1,278.6 "></polygon>
<polygon fill="#F4662D" points="711,288.4 697.6,288.4 697.6,274.9 704.6,268.7 711,274.9 "></polygon>
<path fill="#25768B" d="M842.4,308.4c-55.5,1-50.9-20-100.3-44.9c-12.1-6.1-24.3-12.2-35.1-20.4c-14.4-10.8-26.2-24.8-41.2-34.7
	c-15-9.9-35.4-15-51-6c-5.3,3.1-29.5,14.5-35,17.2c9.4,3.3,21.7,2.1,34-10c10.1-10,19.9-12.7,38.1-4.5c18.1,8.2,50.7,53.4,84.3,69.7
	c33.5,16.3,90.6,52.5,106,52.5"></path>
<polygon fill="#F2454B" points="816,311.5 795.3,311.5 795.3,290.8 806.1,281.2 816,290.8 "></polygon>
<polygon fill="#FFFFFF" points="788.3,300.3 767.6,300.3 767.6,279.5 778.4,269.9 788.3,279.5 "></polygon>
<path fill="#FFFFFF" d="M604.5,167.3c-1.6,15.7,0.5,26.5,4.7,41.7l-7.3,9.3c-2.8,2.8-6.7,4.2-10.6,4.9c-9.2,1.7-19.2-0.4-24.7-8
	l-4.4-29.1c-3.5-4.7-13.2,2.6-25.7,5.3s-13.2-9.2-13-10.6c0.3-1.5,0.3-4.8-1.4-5.1c-8.6-1.7-4.2-8.4-4.2-8.4s2.2-1.6,0.3-1.9
	c-2-0.3-3.1-2.7-3.2-4.5c-0.2-1.8,1.4-3.6,1.4-3.6s2.2-3.7-3.5-4.9s-3.4-7.2-0.4-11.3c3-4.1,8.5-18.4,7.9-25.4
	c-0.6-7,1.3-14.8,1.3-14.8c2.5-5.6,7.7-9.8,13.4-11.9c18.4-6.8,38.9,1.9,55.1,13.1c6.6,4.6,13.1,9.9,16,17.4c2,5.1,2.1,10.7,2,16.2
	C608,146,605.5,157.1,604.5,167.3z"></path>
<linearGradient id="WO_SVGID_7_" gradientUnits="userSpaceOnUse" x1="470.9286" y1="300.5014" x2="470.9286" y2="300.5014">
	<stop offset="6.610577e-04" style="stop-color:#191A38"></stop>
	<stop offset="0.3581" style="stop-color:#191A4A"></stop>
	<stop offset="0.6744" style="stop-color:#191A55"></stop>
</linearGradient>
<path fill="url(#WO_SVGID_7_)" d="M470.9,300.5"></path>
<g data-rellax-speed=".5">

	<path fill="#62A39E" d="M132.5,258.9c9,5.5,16,11.9,27.5,16.2c22.7,8.5,55.2,6.6,83.4,9.7c61.6,6.8,98.5,36.7,154.7,50.4
		c28.2,6.9,60.1,9.3,91.1,12.5c31,3.1,62.7,7.3,87.3,16.7c9.5,3.6,15,10.2,17.8,17.7H614c-2.5-8.2-8.1-15.5-18.4-19.5
		c-24.6-9.4-56.3-13.6-87.3-16.7c-31-3.1-62.9-5.6-91.1-12.5c-56.2-13.7-93.1-43.6-154.7-50.4c-28.2-3.1-60.7-1.2-83.4-9.7
		c-11.5-4.3-18.6-10.7-27.5-16.2c-19.5-12-49.4-20-81.2-21.9c-15.5-0.9-30.2-0.3-44.2,1.6c4.1-0.2,8.2-0.2,12.4-0.2
		c4.2,0,8.4,0.2,12.6,0.4C83.1,238.8,113,246.9,132.5,258.9z"></path>
	<path fill="#77BFBB" d="M131.6,258.9c9,5.5,16,11.9,27.5,16.2c22.7,8.5,55.2,6.6,83.4,9.7c61.6,6.8,98.5,36.7,154.7,50.4
		c28.2,6.9,60.1,9.3,91.1,12.5c31,3.1,62.7,7.3,87.3,16.7c9.5,3.6,15,10.2,17.8,17.7h1c-2.7-7.5-8.3-14-17.8-17.7
		c-24.6-9.4-56.3-13.6-87.3-16.7c-31-3.1-62.9-5.6-91.1-12.5c-56.2-13.7-93.1-43.6-154.7-50.4c-28.2-3.1-60.7-1.2-83.4-9.7
		c-11.5-4.3-18.6-10.7-27.5-16.2c-19.5-12-49.4-20-81.2-21.9c-4.3-0.3-8.5-0.4-12.6-0.4c3.8,0,7.7,0.2,11.7,0.4
		C82.2,238.8,112.1,246.9,131.6,258.9z"></path>
	<path fill="#77BFBB" d="M575.6,364.3c-24.6-9.4-56.3-13.6-87.3-16.7c-31-3.1-62.9-5.6-91.1-12.5c-56.2-13.7-93.1-43.6-154.7-50.4
		c-28.2-3.1-60.7-1.2-83.4-9.7c-11.5-4.3-18.6-10.7-27.5-16.2c-19.5-12-49.4-20-81.2-21.9c-4-0.2-7.8-0.4-11.7-0.4
		c-4.4,0-8.7,0.1-13,0.3c-7.3,1-14.4,2.4-21.3,4.2v190.5h614.8C619.1,387.5,585,367.9,575.6,364.3z"></path>
	<linearGradient id="WO_SVGID_8_" gradientUnits="userSpaceOnUse" x1="15093.6094" y1="241.492" x2="15311.5508" y2="618.9781" gradientTransform="matrix(-1 0 0 1 15459.4756 0)">
		<stop offset="0.236" style="stop-color:#77BFBB"></stop>
		<stop offset="0.2678" style="stop-color:#74BAB6"></stop>
		<stop offset="0.3955" style="stop-color:#6AADA8"></stop>
		<stop offset="0.5547" style="stop-color:#64A5A0"></stop>
		<stop offset="0.8401" style="stop-color:#62A39E"></stop>
	</linearGradient>
	<path opacity="0.89" fill="url(#WO_SVGID_8_)" d="M575.6,363.3c-24.6-9.4-56.3-13.6-87.3-16.7c-31-3.1-62.9-5.6-91.1-12.5
		c-56.2-13.7-93.1-43.6-154.7-50.4c-28.2-3.1-60.7-1.2-83.4-9.7c-11.5-4.3-18.6-10.7-27.5-16.2c-19.5-12-49.4-20-81.2-21.9
		c-4-0.2-7.8-0.4-11.7-0.4c-4.4,0-8.7,0.1-13,0.3c-7.3,1-14.4,2.4-21.3,4.2v190.5h614.8C619.1,384.5,585,366.9,575.6,363.3z"></path>
</g>
<g data-rellax-speed="1" id="foreground-clouds">
	<path fill="#FFFFFF" d="M218.8,367.8C118.2,335.5,49.9,354.1,0,387.5l0.7,194h849.1c0,0-3-134.4,0.2-242.7c0,0-225.1-53.1-364.7,16
		C346.9,423.5,218.8,367.8,218.8,367.8z"></path>
</g>
<linearGradient id="WO_SVGID_9_" gradientUnits="userSpaceOnUse" x1="511.7632" y1="96.0317" x2="832.3042" y2="96.0317">
	<stop offset="6.610577e-04" style="stop-color:#191A38"></stop>
	<stop offset="0.2149" style="stop-color:#191A3E"></stop>
	<stop offset="0.4982" style="stop-color:#191A4F"></stop>
	<stop offset="0.5833" style="stop-color:#191A55"></stop>
</linearGradient>
<path id="hair" fill="url(#WO_SVGID_9_)" d="M774.1,31.5c-2.6,2.1-6,6-8.4,3.7c-2.6-2.4-4.8-5.4-7.9-7.2c-2.9-1.7-6.4-2.3-9.8-2.8
	c-12.3-1.7-25.6-2.3-36.4,3.8c-9.1,5.1-15.4,14.2-24.3,19.6c-8.8,5.3-20,6.4-29.7,3.1c-4.4-1.5-8.5-4-12.9-5.8
	c-17-7.2-37.6-5.1-52.7,5.5c-5,3.5-9.5,8-15.3,10.3c-7,2.8-14.9,2-22.5,2.5c-7.6,0.5-15.7,3.5-19.2,10.3c-7-0.6-13.6,4.1-17.2,10.1
	c-3.6,6-4.9,13.1-5.9,20c-0.3,2.3-0.6,4.7,0.3,6.8c1.5,3.2,5.3,4.6,8.7,5.2c6.4,1.2,13,1.1,19.3-0.2c6.9-1.5,14.1-4.4,20.7-1.8
	c7.6,3,10.6,12,12.7,19.9c5.3-0.4,9.2-7.5,14.2-5.9c4.1,1.3,4.3,7.4,2,11.1c-2.3,3.7-6,6.4-7.6,10.4c-1.2,3-1,6.4-0.9,9.6
	c0.4,6.6,0.8,13.3,1.1,19.9c0.1,2.4,0.3,5,1.5,7.1c2.3,4.1,7.6,5.5,12.3,5.3c14.2-0.5,26.2-10.8,34.6-22.2c5.1-7,9.7-14.9,17.2-19.2
	c7.9-4.5,17.5-4.1,26.5-5.2c12.9-1.5,26.5-7.2,32.5-18.8c4.2-8.1,4.5-18.4,10.9-24.9c5.5-5.6,14.1-6.8,22-6.8s13.4-3.2,20.7-6
	c6.4-2.4,12.8-1.2,18.9-4.2c2.4-1.2,4.8-2.7,6.6-4.8c3.8-4.4,4.4-10.9,8.4-15.1c3.8-4,9.7-4.9,14.8-7c9.5-3.8,17.1-12.3,19.9-22.1
	c1.5-5.5,3.4-10,2.4-15.5c-1.1-5.6-3.1-11.3-7.2-15.4S814.3-1.3,809.1,1c-0.8,0.4-1.7,0.9-2.2,1.6c-1.5,2.1-0.1,4.9,0.1,7.4
	c0.5,4.7-3.2,9-7.4,11.2s-9.1,2.6-13.8,3.6S777.8,28.5,774.1,31.5z"></path>
</svg>