<!-- Generator: Adobe Illustrator 18.0.0, SVG Export Plug-In  -->
<svg version="1.1"
	 xmlns="http://www.w3.org/2000/svg" xmlns:xlink="http://www.w3.org/1999/xlink" xmlns:a="http://ns.adobe.com/AdobeSVGViewerExtensions/3.0/"
	 x="0px" y="0px" width="838.1px" height="450px" viewBox="0 0 838.1 450" enable-background="new 0 0 838.1 450"
	 xml:space="preserve">
<defs>
</defs>
<linearGradient id="WO_SVGID_1_" gradientUnits="userSpaceOnUse" x1="698.0237" y1="69.9628" x2="34.4563" y2="420.8895" gradientTransform="matrix(-1 0 0 1 820.3345 0)">
	<stop  offset="1.470353e-02" style="stop-color:#81B0F9;stop-opacity:0"/>
	<stop  offset="0.5315" style="stop-color:#B6D4FE;stop-opacity:0.6"/>
	<stop  offset="1" style="stop-color:#B6D4FE"/>
</linearGradient>
<path fill="url(#WO_WO_SVGID_1_)" d="M34.7,380.5l-9.9-278.6c22.2-9.7,80-15.2,116.9-16.4c125.2-4,137.1,151.1,221,107s85-98,158-67
	c47.7,20.3,100-70.6,164.3-83.3c91.2-18,152,58.9,152,58.9v287.6l-799.1-1.7L34.7,380.5z"/>
<path fill="#FFFFFF" d="M8,315.7L8.3,97.8c0,0,72.4-86.7,110.7,33.3c0,0,28.7,6.4,64.9,93.4c0,0,130.7-20.7,159.7,91.6"/>
<linearGradient id="WO_SVGID_2_" gradientUnits="userSpaceOnUse" x1="3.880147e-02" y1="195.7844" x2="335.6892" y2="195.7844">
	<stop  offset="6.610577e-04" style="stop-color:#191A38"/>
	<stop  offset="0.3581" style="stop-color:#191A4A"/>
	<stop  offset="0.6744" style="stop-color:#191A55"/>
</linearGradient>
<path fill="url(#WO_SVGID_2_)" d="M0,319.7l0.3-217.9c0,0,72.4-86.7,110.7,33.3c0,0,28.7,6.4,64.9,93.4c0,0,130.7-20.7,159.7,91.6"/>
<path fill="#FFFFFF" d="M287.1,294.5c33.1-15.7,65.5-67.9,89.7-50c48.7,36,68.7-16.1,94-20.6c35.9-6.4,59.9,20.9,59.9,20.9v102.3
	L216,346.6l-1.3-2.3"/>
<linearGradient id="WO_SVGID_3_" gradientUnits="userSpaceOnUse" x1="545.7763" y1="258.1112" x2="327.1893" y2="373.7106" gradientTransform="matrix(-1 0 0 1 820.3345 0)">
	<stop  offset="0" style="stop-color:#EAA11F"/>
	<stop  offset="0.2579" style="stop-color:#F9B529"/>
</linearGradient>
<path fill="url(#WO_SVGID_3_)" d="M270.6,302.5c33.1-15.7,65.5-67.9,89.7-50c48.7,36,68.7-16.1,94-20.6c35.9-6.4,59.9,20.9,59.9,20.9
	v102.3l-314.7-0.6l-1.3-2.3"/>
<polygon fill="#EAA11F" points="801.5,141.4 812.2,152.1 812.2,311 798.7,311 "/>
<path fill="#FFFFFF" d="M774.4,40.4c-2.5,2.1-5.9,6-8.3,3.7c-2.6-2.4-4.8-5.3-7.8-7.2c-2.9-1.7-6.4-2.3-9.7-2.8
	c-12.2-1.7-25.4-2.3-36.2,3.7c-9.1,5-15.3,14.1-24.2,19.4c-8.7,5.3-19.8,6.4-29.5,3.1c-4.4-1.5-8.5-3.9-12.8-5.8
	c-16.8-7.2-37.4-5-52.3,5.5c-5,3.5-9.5,7.9-15.2,10.2c-7,2.8-14.8,2-22.4,2.5c-7.5,0.5-15.6,3.5-19.1,10.2
	c-6.9-0.6-13.5,4.1-17.1,10c-3.6,5.9-4.8,13-5.8,19.9c-0.3,2.3-0.6,4.7,0.3,6.8c1.4,3.2,5.2,4.5,8.7,5.2c6.3,1.2,12.9,1.1,19.2-0.2
	c6.8-1.4,14-4.3,20.5-1.8c7.6,3,10.6,11.9,12.7,19.8c5.2-0.4,9.1-7.5,14.1-5.8c4.1,1.3,4.2,7.3,2,11c-2.2,3.7-6,6.4-7.5,10.4
	c-1.2,3-1,6.3-0.8,9.6c0.4,6.6,0.7,13.2,1.1,19.8c0.1,2.4,0.3,4.9,1.5,7.1c2.3,4.1,7.6,5.4,12.3,5.2c14.1-0.5,26-10.7,34.4-22.1
	c5.1-6.9,9.6-14.8,17.1-19c7.8-4.4,17.4-4.1,26.3-5.2c12.8-1.5,26.3-7.2,32.3-18.6c4.2-8,4.4-18.3,10.8-24.8
	c5.5-5.6,14-6.8,21.9-6.8c7.8,0,13.3-3.2,20.6-6c6.3-2.4,12.8-1.1,18.8-4.2c2.4-1.2,4.8-2.7,6.5-4.8c3.7-4.4,4.4-10.9,8.4-15
	c3.8-3.9,9.6-4.9,14.7-6.9c9.5-3.8,17-12.2,19.8-22c1.5-5.4,3.4-9.9,2.3-15.4c-1.1-5.6-3.1-11.3-7.1-15.3s-10.4-6.1-15.7-3.8
	c-0.8,0.4-1.7,0.9-2.2,1.6c-1.4,2.1-0.1,4.8,0.1,7.3c0.5,4.7-3.2,9-7.4,11.1s-9.1,2.6-13.7,3.6C781.4,34.6,778.1,37.4,774.4,40.4z"
	/>
<linearGradient id="WO_SVGID_4_" gradientUnits="userSpaceOnUse" x1="430.6891" y1="188.0044" x2="664.3849" y2="188.0044">
	<stop  offset="6.610577e-04" style="stop-color:#D13D47"/>
	<stop  offset="0.1477" style="stop-color:#DD4048"/>
	<stop  offset="0.416" style="stop-color:#EC444A"/>
	<stop  offset="0.6274" style="stop-color:#F2454B"/>
</linearGradient>
<polygon fill="url(#WO_SVGID_4_)" points="664.4,280.9 664.4,157.6 558.3,122.1 430.7,79.5 430.7,296.5 "/>
<linearGradient id="WO_SVGID_5_" gradientUnits="userSpaceOnUse" x1="492.5212" y1="222.8808" x2="801.5048" y2="222.8808">
	<stop  offset="0" style="stop-color:#EAA11F"/>
	<stop  offset="0.2579" style="stop-color:#F9B529"/>
</linearGradient>
<polygon fill="url(#WO_SVGID_5_)" points="733.4,154.1 733.4,139.7 725.1,139.7 725.1,155.6 718.1,156.8 718.1,139.7 709.8,139.7
	709.8,158.2 600.5,180 501.3,258.5 492.5,284.2 801.5,306 801.5,142.2 "/>
<rect x="763.8" y="168.6" fill="#FFFFFF" width="5.4" height="5.9"/>
<rect x="774.7" y="168.6" fill="#FFFFFF" width="5.4" height="5.9"/>
<rect x="763.8" y="181.9" fill="#FFFFFF" width="5.4" height="5.9"/>
<rect x="774.7" y="181.9" fill="#FFFFFF" width="5.4" height="5.9"/>
<path fill="#FFFFFF" d="M591.6,212.1c-12.5,6.2-24.7,1.1-32.2-10.5c-19.3,0.1-37.5,15.9-49,31.1c-30.2,40.1-154.7,98.3-204,126.7
	l59.3,67l141.1-57.4"/>
<path fill="#2E8A9E" d="M838.1,308.4c-55.5,1-50.9-20-100.3-44.9c-12.1-6.1-24.3-12.2-35.1-20.4c-14.4-10.8-26.2-24.8-41.2-34.7
	c-15-9.9-35.4-15-51-6c-5.3,3.1-9.7,7.6-15.2,10.4c-11.7,5.9-27.8,2.3-34.8-8.7c-18.1,0.1-31,16.6-41.8,30.9
	c-28.3,37.7-229.1,134.4-273.8,147.8l51.1,67.1l541.4-6.1L838.1,308.4"/>
<linearGradient id="WO_SVGID_6_" gradientUnits="userSpaceOnUse" x1="300.3556" y1="323.3274" x2="838.1137" y2="323.3274">
	<stop  offset="0.1622" style="stop-color:#77BFBB"/>
	<stop  offset="0.3301" style="stop-color:#6DB6B5"/>
	<stop  offset="0.6135" style="stop-color:#539FA6"/>
	<stop  offset="0.9761" style="stop-color:#28798D"/>
	<stop  offset="1" style="stop-color:#25768B"/>
</linearGradient>
<path opacity="0.48" fill="url(#WO_SVGID_6_)" d="M838.1,308.4c-55.5,1-50.9-20-100.3-44.9c-12.1-6.1-24.3-12.2-35.1-20.4
	c-14.4-10.8-26.2-24.8-41.2-34.7c-15-9.9-35.4-15-51-6c-5.3,3.1-9.7,7.6-15.2,10.4c-11.7,5.9-27.8,2.3-34.8-8.7
	c-18.1,0.1-26.6,17.6-37.3,32c-28.3,37.7-185.1,118-222.7,146.7l31.2,66.1l505.6-5L838.1,308.4"/>
<polygon fill="#FFFFFF" points="669.2,271.3 669.2,248 658,241.3 644.5,233.2 644.5,271.2 "/>
<path fill="#25768B" d="M838.1,308.4c-55.5,1-50.9-20-100.3-44.9c-12.1-6.1-24.3-12.2-35.1-20.4c-14.4-10.8-26.2-24.8-41.2-34.7
	c-15-9.9-35.4-15-51-6c-5.3,3.1-29.5,14.5-35,17.2c9.4,3.3,21.7,2.1,34-10c10.1-10,19.9-12.7,38.1-4.5s50.7,53.4,84.3,69.7
	c33.5,16.3,90.6,52.5,106,52.5"/>
<path fill="#FFFFFF" d="M600.2,167.3c-1.6,15.7,0.5,26.5,4.7,41.7l-7.3,9.3c-2.8,2.8-6.7,4.2-10.6,4.9c-9.2,1.7-19.2-0.4-24.7-8
	l-4.4-29.1c-3.5-4.7-13.2,2.6-25.7,5.3s-13.2-9.2-13-10.6c0.3-1.5,0.3-4.8-1.4-5.1c-8.6-1.7-4.2-8.4-4.2-8.4s2.2-1.6,0.3-1.9
	c-2-0.3-3.1-2.7-3.2-4.5c-0.2-1.8,1.4-3.6,1.4-3.6s2.2-3.7-3.5-4.9s-3.4-7.2-0.4-11.3s8.5-18.4,7.9-25.4c-0.6-7,1.3-14.8,1.3-14.8
	c2.5-5.6,7.7-9.8,13.4-11.9c18.4-6.8,38.9,1.9,55.1,13.1c6.6,4.6,13.1,9.9,16,17.4c2,5.1,2.1,10.7,2,16.2
	C603.7,146,601.2,157.1,600.2,167.3z"/>
<path fill="#62A39E" d="M128.2,258.9c9,5.5,16,11.9,27.5,16.2c22.7,8.5,55.2,6.6,83.4,9.7c61.6,6.8,98.5,36.7,154.7,50.4
	c28.2,6.9,60.1,9.3,91.1,12.5c31,3.1,62.7,7.3,87.3,16.7c9.5,3.6,15,10.2,17.8,17.7h19.7c-2.5-8.2-8.1-15.5-18.4-19.5
	c-24.6-9.4-56.3-13.6-87.3-16.7c-31-3.1-62.9-5.6-91.1-12.5c-56.2-13.7-93.1-43.6-154.7-50.4c-28.2-3.1-60.7-1.2-83.4-9.7
	c-11.5-4.3-18.6-10.7-27.5-16.2c-19.5-12-49.4-20-81.2-21.9c-15.5-0.9-30.2-0.3-44.2,1.6c4.1-0.2,8.2-0.2,12.4-0.2
	c4.2,0,8.4,0.2,12.6,0.4C78.8,238.8,108.7,246.9,128.2,258.9z"/>
<path fill="#77BFBB" d="M127.2,258.9c9,5.5,16,11.9,27.5,16.2c22.7,8.5,55.2,6.6,83.4,9.7c61.6,6.8,98.5,36.7,154.7,50.4
	c28.2,6.9,60.1,9.3,91.1,12.5c31,3.1,62.7,7.3,87.3,16.7c9.5,3.6,15,10.2,17.8,17.7h1c-2.7-7.5-8.3-14-17.8-17.7
	c-24.6-9.4-56.3-13.6-87.3-16.7c-31-3.1-62.9-5.6-91.1-12.5c-56.2-13.7-93.1-43.6-154.7-50.4c-28.2-3.1-60.7-1.2-83.4-9.7
	c-11.5-4.3-18.6-10.7-27.5-16.2c-19.5-12-49.4-20-81.2-21.9c-4.3-0.3-8.5-0.4-12.6-0.4c3.8,0,7.7,0.2,11.7,0.4
	C77.8,238.8,107.8,246.9,127.2,258.9z"/>
<path fill="#77BFBB" d="M571.2,364.3c-24.6-9.4-56.3-13.6-87.3-16.7c-31-3.1-62.9-5.6-91.1-12.5c-56.2-13.7-93.1-43.6-154.7-50.4
	c-28.2-3.1-60.7-1.2-83.4-9.7c-11.5-4.3-18.6-10.7-27.5-16.2c-19.5-12-49.4-20-81.2-21.9c-4-0.2-7.8-0.4-11.7-0.4
	c-4.4,0-8.7,0.1-13,0.3c-7.3,1-14.4,2.4-21.3,4.2V382h589C586.3,374.5,580.7,367.9,571.2,364.3z"/>
<linearGradient id="WO_SVGID_7_" gradientUnits="userSpaceOnUse" x1="15109.8086" y1="230.8942" x2="15300.4707" y2="561.1316" gradientTransform="matrix(-1 0 0 1 15450.8535 0)">
	<stop  offset="0.236" style="stop-color:#77BFBB"/>
	<stop  offset="0.2678" style="stop-color:#74BAB6"/>
	<stop  offset="0.3955" style="stop-color:#6AADA8"/>
	<stop  offset="0.5547" style="stop-color:#64A5A0"/>
	<stop  offset="0.8401" style="stop-color:#62A39E"/>
</linearGradient>
<path opacity="0.89" fill="url(#WO_SVGID_7_)" d="M571.2,364.3c-24.6-9.4-56.3-13.6-87.3-16.7c-31-3.1-62.9-5.6-91.1-12.5
	c-56.2-13.7-93.1-43.6-154.7-50.4c-28.2-3.1-60.7-1.2-83.4-9.7c-11.5-4.3-18.6-10.7-27.5-16.2c-19.5-12-49.4-20-81.2-21.9
	c-4-0.2-7.8-0.4-11.7-0.4c-4.4,0-8.7,0.1-13,0.3c-7.3,1-14.4,2.4-21.3,4.2V382h589C586.3,374.5,580.7,367.9,571.2,364.3z"/>
<linearGradient id="WO_SVGID_8_" gradientUnits="userSpaceOnUse" x1="507.4522" y1="96.0317" x2="827.9932" y2="96.0317">
	<stop  offset="6.610577e-04" style="stop-color:#191A38"/>
	<stop  offset="0.2149" style="stop-color:#191A3E"/>
	<stop  offset="0.4982" style="stop-color:#191A4F"/>
	<stop  offset="0.5833" style="stop-color:#191A55"/>
</linearGradient>
<path fill="url(#WO_SVGID_8_)" d="M769.8,31.5c-2.6,2.1-6,6-8.4,3.7c-2.6-2.4-4.8-5.4-7.9-7.2c-2.9-1.7-6.4-2.3-9.8-2.8
	c-12.3-1.7-25.6-2.3-36.4,3.8c-9.1,5.1-15.4,14.2-24.3,19.6c-8.8,5.3-20,6.4-29.7,3.1c-4.4-1.5-8.5-4-12.9-5.8
	c-17-7.2-37.6-5.1-52.7,5.5c-5,3.5-9.5,8-15.3,10.3c-7,2.8-14.9,2-22.5,2.5c-7.6,0.5-15.7,3.5-19.2,10.3c-7-0.6-13.6,4.1-17.2,10.1
	c-3.6,6-4.9,13.1-5.9,20c-0.3,2.3-0.6,4.7,0.3,6.8c1.5,3.2,5.3,4.6,8.7,5.2c6.4,1.2,13,1.1,19.3-0.2c6.9-1.5,14.1-4.4,20.7-1.8
	c7.6,3,10.6,12,12.7,19.9c5.3-0.4,9.2-7.5,14.2-5.9c4.1,1.3,4.3,7.4,2,11.1c-2.3,3.7-6,6.4-7.6,10.4c-1.2,3-1,6.4-0.9,9.6
	c0.4,6.6,0.8,13.3,1.1,19.9c0.1,2.4,0.3,5,1.5,7.1c2.3,4.1,7.6,5.5,12.3,5.3c14.2-0.5,26.2-10.8,34.6-22.2c5.1-7,9.7-14.9,17.2-19.2
	c7.9-4.5,17.5-4.1,26.5-5.2c12.9-1.5,26.5-7.2,32.5-18.8c4.2-8.1,4.5-18.4,10.9-24.9c5.5-5.6,14.1-6.8,22-6.8c7.9,0,13.4-3.2,20.7-6
	c6.4-2.4,12.8-1.2,18.9-4.2c2.4-1.2,4.8-2.7,6.6-4.8c3.8-4.4,4.4-10.9,8.4-15.1c3.8-4,9.7-4.9,14.8-7c9.5-3.8,17.1-12.3,19.9-22.1
	c1.5-5.5,3.4-10,2.4-15.5c-1.1-5.6-3.1-11.3-7.2-15.4S810-1.3,804.8,1c-0.8,0.4-1.7,0.9-2.2,1.6c-1.5,2.1-0.1,4.9,0.1,7.4
	c0.5,4.7-3.2,9-7.4,11.2s-9.1,2.6-13.8,3.6S773.5,28.5,769.8,31.5z"/>
</svg>
