<svg version="1.1"
	 x="0px" y="0px" width="31.4px" height="27.5px" viewBox="0 0 31.4 27.5" enable-background="new 0 0 31.4 27.5">
<linearGradient id="SVGID_1_advocate" gradientUnits="userSpaceOnUse" x1="0" y1="13.7727" x2="31.394" y2="13.7727">
	<stop  offset="6.610577e-04" style="stop-color:#D13D47"/>
	<stop  offset="0.1977" style="stop-color:#DD4048"/>
	<stop  offset="0.557" style="stop-color:#EC444A"/>
	<stop  offset="0.8401" style="stop-color:#F2454B"/>
</linearGradient>
<path fill="url(#SVGID_1_advocate)" d="M3.2,27.5c-0.7,0-1.2-0.1-1.5-0.4c-0.3-0.4-0.4-0.9-0.1-1.3c0.3-0.4,1-1.4,1.7-2.4
	c0.3-0.5,0.7-0.9,0.9-1.3C1.5,19.6,0,16.5,0,13.1C0,5.9,7,0,15.7,0c8.7,0,15.7,5.9,15.7,13.1s-7,13.1-15.7,13.1
	c-1.9,0-3.8-0.3-5.6-0.9C7.4,26.8,4.8,27.5,3.2,27.5z M15.7,2C8.1,2,2,7,2,13.1c0,3,1.5,5.9,4.2,8c0.4,0.3,0.5,0.9,0.2,1.3
	c-0.2,0.3-0.8,1.2-1.5,2.1c-0.2,0.3-0.5,0.7-0.7,1c1.1-0.2,3-0.7,5.4-2c0.2-0.1,0.5-0.2,0.8-0.1c1.7,0.6,3.5,0.9,5.4,0.9
	c7.6,0,13.7-5,13.7-11.2S23.3,2,15.7,2z"/>
</svg>
