<svg x="0px" y="0px" width="27.5px" height="27.5px" viewBox="0 0 27.5 27.5" enable-background="new 0 0 27.5 27.5">
	<linearGradient id="SVGID_1_" gradientUnits="userSpaceOnUse" x1="0" y1="13.7268" x2="27.4536" y2="13.7268">
		<stop  offset="6.610577e-04" style="stop-color:#D13D47"/>
		<stop  offset="0.1977" style="stop-color:#DD4048"/>
		<stop  offset="0.557" style="stop-color:#EC444A"/>
		<stop  offset="0.8401" style="stop-color:#F2454B"/>
	</linearGradient>
	<path fill="url(#SVGID_1_)" d="M13.7,0C6.2,0,0,6.2,0,13.7c0,7.6,6.2,13.7,13.7,13.7c7.6,0,13.7-6.2,13.7-13.7
		C27.5,6.2,21.3,0,13.7,0z M13.7,25.5C7.2,25.5,2,20.2,2,13.7C2,7.2,7.2,2,13.7,2c6.5,0,11.8,5.3,11.8,11.8
		C25.5,20.2,20.2,25.5,13.7,25.5z"/>
	<path fill="url(#SVGID_1_)" d="M18.5,19.6h-6.3c0.8-1.1,1.4-2.6,1.2-4.4h1.7c0.6,0,1-0.4,1-1s-0.4-1-1-1h-2.2
		c-0.1-0.2-0.2-0.5-0.3-0.7c-1-2.4-1.4-4.1,0.4-5.2c2.3-1.4,4,0.8,4.2,1.1c0.3,0.4,0.9,0.5,1.4,0.2c0.4-0.3,0.6-0.9,0.2-1.4
		c-1-1.4-3.7-3.5-6.9-1.6c-3.3,2.1-2,5.5-1.2,7.6H9c-0.6,0-1,0.4-1,1s0.4,1,1,1h2.4c0.2,2.4-1.1,3.9-2.3,4.5
		c-0.4,0.2-0.6,0.7-0.5,1.1c0.1,0.5,0.5,0.8,1,0.8h9c0.6,0,1-0.4,1-1S19.1,19.6,18.5,19.6z"/>
</svg>
