<?xml version="1.0" encoding="utf-8"?>
<!-- Generator: Adobe Illustrator 18.0.0, SVG Export Plug-In . SVG Version: 6.00 Build 0)  -->
<!DOCTYPE svg PUBLIC "-//W3C//DTD SVG 1.1//EN" "http://www.w3.org/Graphics/SVG/1.1/DTD/svg11.dtd">
<svg version="1.1" id="Layer_1" xmlns="http://www.w3.org/2000/svg" xmlns:xlink="http://www.w3.org/1999/xlink" x="0px" y="0px"
	 viewBox="-36 -36 100 100" enable-background="new -36 -36 100 100" xml:space="preserve">
<linearGradient id="SVGID_1_" gradientUnits="userSpaceOnUse" x1="-372.2477" y1="-523.1332" x2="-316.5554" y2="-523.1332" gradientTransform="matrix(0.7071 -0.7071 -0.7071 -0.7071 -112.6552 -599.6775)">
	<stop  offset="6.610577e-04" style="stop-color:#D13D47"/>
	<stop  offset="0.1977" style="stop-color:#DD4048"/>
	<stop  offset="0.557" style="stop-color:#EC444A"/>
	<stop  offset="0.8401" style="stop-color:#F2454B"/>
</linearGradient>
<path opacity="0.98" fill="url(#SVGID_1_)" enable-background="new    " d="M27.8,61.8c-3.4,0-6.8-1.4-9.2-3.8L-30.1,9.4
	c-5.1-5.1-5.1-13.7,0-18.8L-9.5-30c5.1-5.1,13.7-5.1,18.8,0l48.3,48.3c2.4,2.4,3.8,5.8,3.8,9.2s-1.4,6.8-3.8,9.2l0,0L37.1,57.3
	C34.7,60.4,31.2,61.8,27.8,61.8z M0.1-25.9c-1.4,0-2.7,0.7-3.8,1.7L-24.2-3.7c-1,1-1.7,2.4-1.7,3.8s0.7,2.7,1.7,3.8l48.3,48.3
	c1,1,2.4,1.7,3.8,1.7s2.7-0.7,3.8-1.7l20.5-20.5c1-1,1.7-2.4,1.7-3.8s-0.7-2.7-1.7-3.8L3.8-24.2C2.8-25.2,1.5-25.9,0.1-25.9z"/>
<linearGradient id="SVGID_2_" gradientUnits="userSpaceOnUse" x1="-372.2319" y1="-523.5711" x2="-316.5804" y2="-523.5711" gradientTransform="matrix(0.7071 -0.7071 -0.7071 -0.7071 -112.6552 -599.6775)">
	<stop  offset="6.610577e-04" style="stop-color:#D13D47"/>
	<stop  offset="0.1977" style="stop-color:#DD4048"/>
	<stop  offset="0.557" style="stop-color:#EC444A"/>
	<stop  offset="0.8401" style="stop-color:#F2454B"/>
</linearGradient>
<path opacity="0.98" fill="url(#SVGID_2_)" enable-background="new    " d="M14.1-14.3l-38.4,38.4c-1,1-1.7,2.4-1.7,3.8
	s0.7,2.7,1.7,3.8l20.5,20.5c1,1,2.4,1.7,3.8,1.7c1.4,0,2.7-0.7,3.8-1.7L52.1,3.9c1-1,1.7-2.4,1.7-3.8c0-1.4-0.7-2.7-1.7-3.8
	L31.6-24.2c-1-1-2.4-1.7-3.8-1.7s-2.7,0.7-3.8,1.7l-4.5,4.5l-5.5-5.5l4.5-4.5c5.1-5.1,13.7-5.1,18.8,0L58-9.1
	C63.1-4,63.1,4.6,58,9.7L9.3,58c-2.4,2.4-5.8,3.8-9.2,3.8s-6.8-1.4-9.2-3.8l-20.5-20.5c-2.7-2.7-4.1-5.8-4.1-9.6s1.4-6.8,3.8-9.2
	L8.3-19.7L14.1-14.3z"/>
</svg>
