<svg version="1.1"
	 x="0px" y="0px" width="27.9px" height="27.9px" viewBox="0 0 27.9 27.9" enable-background="new 0 0 27.9 27.9">
		<linearGradient id="SVGID_connect_" gradientUnits="userSpaceOnUse" x1="144.4927" y1="347.557" x2="160.7444" y2="347.557" gradientTransform="matrix(0.7071 -0.7071 0.7071 0.7071 -339.7256 -123.8905)">
		<stop  offset="6.610577e-04" style="stop-color:#D13D47"/>
		<stop  offset="0.1977" style="stop-color:#DD4048"/>
		<stop  offset="0.557" style="stop-color:#EC444A"/>
		<stop  offset="0.8401" style="stop-color:#F2454B"/>
	</linearGradient>
	<path opacity="0.98" fill="url(#SVGID_connect_)" d="M18,27.9c-1,0-2-0.4-2.7-1.1L1.1,12.6c-1.5-1.5-1.5-4,0-5.5l6-6c1.5-1.5,4-1.5,5.5,0
		l14.1,14.1c0.7,0.7,1.1,1.7,1.1,2.7s-0.4,2-1.1,2.7h0l-6,6C20,27.5,19,27.9,18,27.9z M9.9,2.3c-0.4,0-0.8,0.2-1.1,0.5l-6,6
		C2.5,9.1,2.3,9.5,2.3,9.9c0,0.4,0.2,0.8,0.5,1.1l14.1,14.1c0.3,0.3,0.7,0.5,1.1,0.5c0.4,0,0.8-0.2,1.1-0.5l6-6
		c0.3-0.3,0.5-0.7,0.5-1.1c0-0.4-0.2-0.8-0.5-1.1L11,2.8C10.7,2.5,10.3,2.3,9.9,2.3z"/>
	<path opacity="0.98" fill="url(#SVGID_connect_)" d="M14,5.7L2.8,16.9c-0.3,0.3-0.5,0.7-0.5,1.1c0,0.4,0.2,0.8,0.5,1.1l6,6
		c0.3,0.3,0.7,0.5,1.1,0.5c0.4,0,0.8-0.2,1.1-0.5L25.1,11c0.3-0.3,0.5-0.7,0.5-1.1c0-0.4-0.2-0.8-0.5-1.1l-6-6
		c-0.3-0.3-0.7-0.5-1.1-0.5c-0.4,0-0.8,0.2-1.1,0.5l-1.3,1.3l-1.6-1.6l1.3-1.3c1.5-1.5,4-1.5,5.5,0l6,6c1.5,1.5,1.5,4,0,5.5
		L12.6,26.8c-0.7,0.7-1.7,1.1-2.7,1.1c-1,0-2-0.4-2.7-1.1l-6-6C0.4,20,0,19.1,0,18s0.4-2,1.1-2.7L12.3,4.1L14,5.7z"/>
</svg>
