<svg x="0px" y="0px" width="29.1px" height="27.5px" viewBox="0 0 29.1 27.5" enable-background="new 0 0 30 30" >
<linearGradient id="SVGID_1_" gradientUnits="userSpaceOnUse" x1="0" y1="13.75" x2="29.0967" y2="13.75">
	<stop  offset="6.610577e-04" style="stop-color:#D13D47"/>
	<stop  offset="0.1977" style="stop-color:#DD4048"/>
	<stop  offset="0.557" style="stop-color:#EC444A"/>
	<stop  offset="0.8401" style="stop-color:#F2454B"/>
</linearGradient>
<path fill="url(#SVGID_1_)" d="M20.5,14c1.4-1.5,2.3-3.6,2.3-5.7c0-4.6-3.7-8.3-8.3-8.3C9.9,0,6.2,3.7,6.2,8.3
	c0,4.6,3.7,8.3,8.3,8.3c1.5,0,3-0.4,4.3-1.2c0.1,0.1,0.2,0.1,0.2,0.1c4.5,1.6,7.6,5.5,8,10H2c0.2-2.8,1.5-5.3,3.6-7.3
	c0.4-0.4,0.4-1,0-1.4c-0.4-0.4-1-0.4-1.4,0C1.5,19.4,0,22.8,0,26.5c0,0.6,0.4,1,1,1h27.1c0.6,0,1-0.4,1-1
	C29.1,21.1,25.7,16.2,20.5,14z M8.2,8.3C8.2,4.8,11,2,14.5,2s6.3,2.8,6.3,6.3c0,1.8-0.8,3.6-2.2,4.8c-1.1,1-2.6,1.5-4.1,1.5
	C11,14.5,8.2,11.7,8.2,8.3z"/>
</svg>
