<svg version="1.1" x="0px" y="0px" width="30px" height="30px" viewBox="-2 0 25 30" enable-background="new 0 0 30 30">
	<linearGradient id="SVGID_1_" gradientUnits="userSpaceOnUse" x1="0" y1="11.125" x2="11.0625" y2="11.125">
		<stop  offset="6.610577e-04" style="stop-color:#D13D47"/>
		<stop  offset="0.1977" style="stop-color:#DD4048"/>
		<stop  offset="0.557" style="stop-color:#EC444A"/>
		<stop  offset="0.8401" style="stop-color:#F2454B"/>
	</linearGradient>
	<path fill="url(#SVGID_1_)" d="M6.1,22.2C6.1,22.2,6.1,22.2,6.1,22.2c-0.6,0-1-0.5-1-1c0.1-2.3-1.4-3.4-1.5-3.4l-0.1-0.1
			C1.3,15.8,0,13,0,10.1C0,4.5,4.5,0,10.1,0c0.6,0,1,0.4,1,1s-0.4,1-1,1C5.6,2,2,5.6,2,10.1c0,2.4,1,4.6,2.8,6.1
			c0.4,0.3,2.4,1.9,2.3,5.1C7.1,21.8,6.7,22.2,6.1,22.2z"/>
	<path fill="url(#SVGID_1_)" d="M14.4,19.9c-0.1,0-0.3,0-0.4-0.1c-0.5-0.2-0.7-0.8-0.5-1.3c0.6-1.3,1.5-2.1,1.8-2.2
			c1.8-1.5,2.8-3.8,2.8-6.1c0-4.4-3.6-8.1-8.1-8.1c-0.6,0-1-0.4-1-1s0.4-1,1-1c5.5,0,10.1,4.5,10.1,10.1c0,3-1.3,5.8-3.6,7.7
			l-0.1,0.1l0,0c0,0-0.7,0.5-1.1,1.4C15.2,19.6,14.8,19.9,14.4,19.9z M15.9,17L15.9,17L15.9,17z"/>
	<path fill="url(#SVGID_1_)" d="M7.2,25.2c-0.4,0-0.8-0.3-1-0.7c-0.2-0.5,0.2-1.1,0.7-1.2l7.2-2.1c0.5-0.2,1.1,0.2,1.2,0.7
		s-0.2,1.1-0.7,1.2l-7.2,2.1C7.3,25.1,7.2,25.2,7.2,25.2z"/>
	<path fill="url(#SVGID_1_)" d="M7,28.3c-0.4,0-0.8-0.3-1-0.7c-0.2-0.5,0.2-1.1,0.7-1.2l7.2-2.1c0.5-0.2,1.1,0.2,1.2,0.7
		S15,26,14.4,26.2l-7.2,2.1C7.2,28.3,7.1,28.3,7,28.3z"/>
	<path fill="url(#SVGID_1_)" d="M10.1,20.6c-0.5,0-1-0.4-1-1l-0.2-6.1c0-0.6,0.4-1,1-1c0.5-0.1,1,0.4,1,1l0.2,6.1
		C11.1,20.1,10.7,20.6,10.1,20.6C10.1,20.6,10.1,20.6,10.1,20.6z"/>
</svg>