<svg version="1.1" x="0px" y="0px" width="30" height="30" viewBox="1 0 30 32" >
	<linearGradient id="SVGID_1_" gradientUnits="userSpaceOnUse" x1="7.7578" y1="15.6313" x2="23.9365" y2="15.6313">
		<stop  offset="6.610577e-04" style="stop-color:#D13D47"/>
		<stop  offset="0.1977" style="stop-color:#DD4048"/>
		<stop  offset="0.557" style="stop-color:#EC444A"/>
		<stop  offset="0.8401" style="stop-color:#F2454B"/>
	</linearGradient>
	<path fill="url(#SVGID_1_)" d="M15.8,23.7c-4.5,0-8.1-3.6-8.1-8.1c0-4.5,3.6-8.1,8.1-8.1c4.5,0,8.1,3.6,8.1,8.1
		C23.9,20.1,20.3,23.7,15.8,23.7z M15.8,9.5c-3.4,0-6.1,2.7-6.1,6.1c0,3.4,2.7,6.1,6.1,6.1c3.4,0,6.1-2.7,6.1-6.1
		C21.9,12.3,19.2,9.5,15.8,9.5z"/>
	<path fill="url(#SVGID_1_)" d="M15.8,6.5c-0.6,0-1-0.4-1-1V1c0-0.6,0.4-1,1-1s1,0.4,1,1v4.5C16.8,6.1,16.4,6.5,15.8,6.5z"/>
	<path fill="url(#SVGID_1_)" d="M15.8,31.5c-0.6,0-1-0.4-1-1V26c0-0.6,0.4-1,1-1s1,0.4,1,1v4.5C16.8,31.1,16.4,31.5,15.8,31.5z"/>
	<path fill="url(#SVGID_1_)" d="M20.9,7.8c-0.2,0-0.3,0-0.5-0.1c-0.5-0.3-0.6-0.9-0.4-1.4l2.2-3.9c0.3-0.5,0.9-0.6,1.4-0.4
		C24.1,2.3,24.3,3,24,3.4l-2.2,3.9C21.6,7.7,21.3,7.8,20.9,7.8z"/>
	<path fill="url(#SVGID_1_)" d="M8.5,29.6c-0.2,0-0.3,0-0.5-0.1c-0.5-0.3-0.6-0.9-0.4-1.4l2.2-3.9c0.3-0.5,0.9-0.6,1.4-0.4
		c0.5,0.3,0.6,0.9,0.4,1.4l-2.2,3.9C9.2,29.4,8.9,29.6,8.5,29.6z"/>
	<path fill="url(#SVGID_1_)" d="M28.6,24.1c-0.2,0-0.3,0-0.5-0.1l-3.9-2.3c-0.5-0.3-0.6-0.9-0.4-1.4c0.3-0.5,0.9-0.6,1.4-0.4
		l3.9,2.3c0.5,0.3,0.6,0.9,0.4,1.4C29.3,24,29,24.1,28.6,24.1z"/>
	<path fill="url(#SVGID_1_)" d="M7,11.6c-0.2,0-0.3,0-0.5-0.1L2.6,9.2C2.1,9,1.9,8.3,2.2,7.9c0.3-0.5,0.9-0.6,1.4-0.4l3.9,2.3
		C8,10,8.1,10.6,7.8,11.1C7.7,11.4,7.3,11.6,7,11.6z"/>
	<path fill="url(#SVGID_1_)" d="M24.8,11.7c-0.3,0-0.7-0.2-0.9-0.5c-0.3-0.5-0.1-1.1,0.4-1.4l3.9-2.2c0.5-0.3,1.1-0.1,1.4,0.4
		c0.3,0.5,0.1,1.1-0.4,1.4l-3.9,2.2C25.1,11.6,24.9,11.7,24.8,11.7z"/>
	<path fill="url(#SVGID_1_)" d="M3,24.1c-0.3,0-0.7-0.2-0.9-0.5c-0.3-0.5-0.1-1.1,0.4-1.4L6.4,20c0.5-0.3,1.1-0.1,1.4,0.4
		c0.3,0.5,0.1,1.1-0.4,1.4l-3.9,2.2C3.4,24,3.2,24.1,3,24.1z"/>
	<path fill="url(#SVGID_1_)" d="M23.3,29.5c-0.3,0-0.7-0.2-0.9-0.5l-2.3-3.9c-0.3-0.5-0.1-1.1,0.4-1.4c0.5-0.3,1.1-0.1,1.4,0.4
		l2.3,3.9c0.3,0.5,0.1,1.1-0.4,1.4C23.6,29.5,23.4,29.5,23.3,29.5z"/>
	<path fill="url(#SVGID_1_)" d="M10.7,7.9c-0.3,0-0.7-0.2-0.9-0.5L7.6,3.5C7.3,3,7.5,2.4,7.9,2.1C8.4,1.9,9,2,9.3,2.5l2.3,3.9
		c0.3,0.5,0.1,1.1-0.4,1.4C11,7.8,10.9,7.9,10.7,7.9z"/>
	<path fill="url(#SVGID_1_)" d="M30.5,16.8H26c-0.6,0-1-0.4-1-1s0.4-1,1-1h4.5c0.6,0,1,0.4,1,1S31.1,16.8,30.5,16.8z"/>
	<path fill="url(#SVGID_1_)" d="M5.5,16.8H1c-0.6,0-1-0.4-1-1s0.4-1,1-1h4.5c0.6,0,1,0.4,1,1S6.1,16.8,5.5,16.8z"/>
</svg>