<svg xmlns="http://www.w3.org/2000/svg" width="765.8" height="448.8" viewBox="0 -50 765.8 448.8" >
  <style>

    #hair-2 {
      opacity: .7;
      animation: hair2 infinite linear 4s;
    }
    #hair-3 {
      opacity: .7;
      <!-- display: none; -->
      animation: hair2 infinite linear 4s 1s;
    }

  #blue-clouds {
    animation: cloud-see-saw infinite alternate 5s ease-in-out;
  }

  @keyframes cloud-see-saw {
    100% {
      <!-- transform: translate(0%,-3%) -->
      transform: rotate(-3deg)
    }
  }
  @keyframes hair2 {
    0% {
      transform: translate(0,0)
    }
    25% {
      transform: translate(6px,2px)
    }
    50% {
      transform: translate(10px,-2px)
    }
    75% {
      transform: translate(6px,-3px)
    }

  </style>
  <linearGradient id="a" gradientUnits="userSpaceOnUse" x1="450.654" x2="450.654" y2="398.778">
    <stop offset=".015" stop-color="#81b0f9" stop-opacity="0"/>
    <stop offset=".531" stop-color="#b6d4fe" stop-opacity=".6"/>
    <stop offset="1" stop-color="#b6d4fe"/>
  </linearGradient>
  <path id="blue-clouds" fill="url(#a)" d="M217 397.4c8.6 1.7 18 1.9 28.6 0 9.9-1.7 20.7-5.2 32.9-10.7 0 0 13.3-7.5 35.3-16.3 51.6-20.4 151.1-47.3 240.8 1.3 64.8 34.6 129.2-50.5 209.4-33.4L765.8 0S598.3.8 543.3.5C396 21.9 432.1 97.1 451.7 132s-2 41.2-61.4 44.6c-28 1.6-46 22.9-53.1 63.1-4.7 26.2-24.5 13.9-110.5-9.4-83-22.5-95.8 49.8-90 103.8 27.5 27.8 47.8 56.8 80.3 63.3z"/>
  <path fill="#2E8A9E" d="M217 397.4h28.6c9.9-1.7 20.7-5.2 32.9-10.7 0 0 13.3-7.5 35.3-16.3-.1-12.4-2.7-25-9.7-30.7-12-9.8-27.6-14.1-42.7-17.4-15.2-3.3-30.8-5.9-44.6-13-27.5-14.1-45.6-45.3-75.8-52.3-13.8-3.2-29.7-1.3-40.8-10.1-5.7-4.5-9.1-11.1-13.5-16.8-9.5-12.4-24.2-20.8-39.7-22.8-15.6-1.9-31.8 2.6-44.1 12.3 0 1.7-2.8 3.4-2.8 5.1v54.1c134.5-5.4 149.5 105.1 216.9 118.6z"/>
  <path fill="none" d="M245.6 397.4H217c8.5 1.8 18 1.9 28.6 0z"/>
  <linearGradient id="b" gradientUnits="userSpaceOnUse" y1="302.116" x2="313.805" y2="302.116">
    <stop offset=".134" stop-color="#77bfbb"/>
    <stop offset=".249" stop-color="#60abae"/>
    <stop offset=".439" stop-color="#408e9b"/>
    <stop offset=".599" stop-color="#2c7c8f"/>
    <stop offset=".708" stop-color="#25768b"/>
  </linearGradient>
  <path opacity=".6" fill="url(#b)" d="M217 397.4h28.6c9.9-1.7 20.7-5.2 32.9-10.7 0 0 13.3-7.5 35.3-16.3-.1-12.4-2.7-25-9.7-30.7-12-9.8-27.6-14.1-42.7-17.4-15.2-3.3-30.8-5.9-44.6-13-27.5-14.1-45.6-45.3-75.8-52.3-13.8-3.2-29.7-1.3-40.8-10.1-5.7-4.5-9.1-11.1-13.5-16.8-9.5-12.4-24.2-20.8-39.7-22.8-15.6-1.9-31.8 2.6-44.1 12.3 0 1.7-2.8 3.4-2.8 5.1v54.1c134.5-5.4 149.5 105.1 216.9 118.6z"/>
  <path fill="#25768B" d="M302.8 341c-12-9.8-25.9-4.4-41.1-7.7-15.2-3.3-30.8-5.9-44.6-13-27.5-14.2-45.6-45.4-75.7-52.4-13.8-3.2-29.7-1.3-40.8-10.1-5.7-4.5-9.1-21.4-13.5-27.1 4.4 5.7 7.8 12.4 13.5 16.8 11.1 8.8 27 6.8 40.8 10.1 30.2 7.1 48.2 38.2 75.7 52.4 13.8 7.1 29.4 9.7 44.6 13 15.2 3.3 30.7 7.6 42.7 17.4l-1.6.6z"/>
  <path fill="#EAA11F" d="M653.5 78.5l7.9 6.4V262h-11.7z"/>
  <path fill="#F9B529" d="M494.4 298.6V110.2l159.1-31.7V296z"/>
  <linearGradient id="c" gradientUnits="userSpaceOnUse" x1="669.63" y1="216.016" x2="512.674" y2="171.01">
    <stop offset=".734" stop-color="#f9b529"/>
    <stop offset=".97" stop-color="#eaa11f"/>
  </linearGradient>
  <path fill="url(#c)" d="M494.4 298.6V110.2l159.1-31.7V296z"/>
  <linearGradient id="d" gradientUnits="userSpaceOnUse" x1="345.973" y1="264.407" x2="629.224" y2="264.407">
    <stop offset=".001" stop-color="#d13d47"/>
    <stop offset=".198" stop-color="#dd4048"/>
    <stop offset=".557" stop-color="#ec444a"/>
    <stop offset=".84" stop-color="#f2454b"/>
  </linearGradient>
  <path fill="url(#d)" d="M554.6 371.7c24.6 13.1 49.2 9 74.6-.3L627 250.9 346 148.7v210.5c54.9-16.4 135.1-27.3 208.6 12.5z"/>
  <path fill="#191A38" d="M491.4 249.2s-5 1.7-5.7 2-3.3 1-2.4 1.2c.9.2 5.8-1 5.1-.6-.7.4-5.7 1.6-5.7 1.9 0 .8 5.8-.3 5.8-.3s-5.3 1.7-5.7 1.9c-.4.2-.1 1.4 4.8-.2 5-1.6-4.3 1.5-4.3 1.5s-.6 1.2 2.3.5 7.3-2.2 8.1-2.9c.8-.6 2-2 2-2l-4.3-3zm54-70.2c-1.3 0-5.8 2.7-5.9-1.4 0 0-.4-4.2-1-4.2h-1.3l.9-3.7s-.5-6.5 1-6.8c0 0 6.6-4.1 11.5 1.2s5.4 7.3 6.2 6.7c.8-.6-2.8 5.2-2.8 5.2l1.3 10-7.8 4.9-1.5-2.9"/>
  <!-- Hair -->
  <path fill="#FFF" d="M603 168.1c-.3 2.1-1.2 4.2-2.5 5.8-.2.3-.5.6-.8.7-.2.1-.5.1-.8.2-2.3.2-4.6-.7-6.9-1.1-2.3-.4-5 .4-7 1.6-1.3.8-2.7 1.7-3.4 3-.3.5-.5 1-.8 1.5-.7 1.1-2.1 1.5-3.3 1.7-2.6.4-5.3.1-7.7-1-.8-.4-1.6-.8-2.5-1.1-2.6-.6-5.3.9-7.9.3-2.2-.5-3.7-2.5-4.7-4.4-.6-1.2-1.1-2.4-1.1-3.7 0-.6.2-1.2 0-1.8-.1-.6-.7-1.2-1.3-1.1-.2 0-.4.2-.7.2-.6.1-1.2-.2-1.5-.7-.4-.5-.5-1-.9-1.5-.9-1.4-2.7-2-4.2-1.5-1.1.4-2.1 1.2-3.2.9-.7-.2-1.1-.9-1.7-1.2-1-.5-2.2.2-3.3-.1-1.1-.3-1.8-1.5-1.8-2.6s.4-2.2.8-3.3c1.2-2.9 2.4-6.6 5.3-7.9 2.9-1.3 6.4-1 9 .8.3.2.6.5 1 .6.5.1 1 0 1.5-.2 2.1-.9 3-3.3 4.7-4.9 1.7-1.6 4.1-2.3 6.3-2.9 1.1-.3 2.2-.6 3.3-.3 1.5.3 2.5 1.6 3.8 2.3 1.2.7 2.6 1 4 1.3.9.2 1.8.4 2.7.3 1.8-.2 3.3-1.4 4.7-2.5 2.8-2.2 6.1-4.2 9.7-4.1 3.2.1 6.2 1.8 8.2 4.2 2 2.4 3.2 5.5 3.9 8.6.1.4.2.8.4 1.1.3.4.9.6 1.4.7 1.2.3 2.4.6 3.3 1.5.7.7 1.1 1.7 1.3 2.7.4 2.1.2 4.5-1.1 6.2-1.3 1.7-4.1 2.5-6.2 1.7z"/>
  <path id="hair-2" fill="#FFF" d="M603 168.1c-.3 2.1-1.2 4.2-2.5 5.8-.2.3-.5.6-.8.7-.2.1-.5.1-.8.2-2.3.2-4.6-.7-6.9-1.1-2.3-.4-5 .4-7 1.6-1.3.8-2.7 1.7-3.4 3-.3.5-.5 1-.8 1.5-.7 1.1-2.1 1.5-3.3 1.7-2.6.4-5.3.1-7.7-1-.8-.4-1.6-.8-2.5-1.1-2.6-.6-5.3.9-7.9.3-2.2-.5-3.7-2.5-4.7-4.4-.6-1.2-1.1-2.4-1.1-3.7 0-.6.2-1.2 0-1.8-.1-.6-.7-1.2-1.3-1.1-.2 0-.4.2-.7.2-.6.1-1.2-.2-1.5-.7-.4-.5-.5-1-.9-1.5-.9-1.4-2.7-2-4.2-1.5-1.1.4-2.1 1.2-3.2.9-.7-.2-1.1-.9-1.7-1.2-1-.5-2.2.2-3.3-.1-1.1-.3-1.8-1.5-1.8-2.6s.4-2.2.8-3.3c1.2-2.9 2.4-6.6 5.3-7.9 2.9-1.3 6.4-1 9 .8.3.2.6.5 1 .6.5.1 1 0 1.5-.2 2.1-.9 3-3.3 4.7-4.9 1.7-1.6 4.1-2.3 6.3-2.9 1.1-.3 2.2-.6 3.3-.3 1.5.3 2.5 1.6 3.8 2.3 1.2.7 2.6 1 4 1.3.9.2 1.8.4 2.7.3 1.8-.2 3.3-1.4 4.7-2.5 2.8-2.2 6.1-4.2 9.7-4.1 3.2.1 6.2 1.8 8.2 4.2 2 2.4 3.2 5.5 3.9 8.6.1.4.2.8.4 1.1.3.4.9.6 1.4.7 1.2.3 2.4.6 3.3 1.5.7.7 1.1 1.7 1.3 2.7.4 2.1.2 4.5-1.1 6.2-1.3 1.7-4.1 2.5-6.2 1.7z"/>
  <path id="hair-3" fill="#FFF" d="M603 168.1c-.3 2.1-1.2 4.2-2.5 5.8-.2.3-.5.6-.8.7-.2.1-.5.1-.8.2-2.3.2-4.6-.7-6.9-1.1-2.3-.4-5 .4-7 1.6-1.3.8-2.7 1.7-3.4 3-.3.5-.5 1-.8 1.5-.7 1.1-2.1 1.5-3.3 1.7-2.6.4-5.3.1-7.7-1-.8-.4-1.6-.8-2.5-1.1-2.6-.6-5.3.9-7.9.3-2.2-.5-3.7-2.5-4.7-4.4-.6-1.2-1.1-2.4-1.1-3.7 0-.6.2-1.2 0-1.8-.1-.6-.7-1.2-1.3-1.1-.2 0-.4.2-.7.2-.6.1-1.2-.2-1.5-.7-.4-.5-.5-1-.9-1.5-.9-1.4-2.7-2-4.2-1.5-1.1.4-2.1 1.2-3.2.9-.7-.2-1.1-.9-1.7-1.2-1-.5-2.2.2-3.3-.1-1.1-.3-1.8-1.5-1.8-2.6s.4-2.2.8-3.3c1.2-2.9 2.4-6.6 5.3-7.9 2.9-1.3 6.4-1 9 .8.3.2.6.5 1 .6.5.1 1 0 1.5-.2 2.1-.9 3-3.3 4.7-4.9 1.7-1.6 4.1-2.3 6.3-2.9 1.1-.3 2.2-.6 3.3-.3 1.5.3 2.5 1.6 3.8 2.3 1.2.7 2.6 1 4 1.3.9.2 1.8.4 2.7.3 1.8-.2 3.3-1.4 4.7-2.5 2.8-2.2 6.1-4.2 9.7-4.1 3.2.1 6.2 1.8 8.2 4.2 2 2.4 3.2 5.5 3.9 8.6.1.4.2.8.4 1.1.3.4.9.6 1.4.7 1.2.3 2.4.6 3.3 1.5.7.7 1.1 1.7 1.3 2.7.4 2.1.2 4.5-1.1 6.2-1.3 1.7-4.1 2.5-6.2 1.7z"/>
  <path fill="#E25A2B" d="M556.7 182.9s19.2 9.7 27.9 25.4c8.6 15.7 26.1 39.2 30.4 41.8-1.2 5.9-3.3 9.2-3.3 9.2s-31.6-26.1-36.8-37.8c-5.2-11.7-6.1-7.7-4.1 1.1s13.1 46.9 13.1 46.9l-58 9.7s9.8-62.1 6.6-59c-3.2 3.1-7.2 15.7-16 22.9-8.8 7.3-20.7 10.1-20.7 10.1l-6.8-4.6s34.5-25.9 37.4-47.3c2-14.3 17.9-14.3 17.9-14.3l12.4-4.1z"/>
  <path fill="#FFF" d="M477.7 269.2s5.3.6 6.1.7c.8.2 3.4.3 2.6.7-.9.4-5.9.4-5.2.7.7.3 5.9.3 6 .6.2.8-5.9 1.2-5.9 1.2s5.5.5 6 .6c.5.2.3 1.5-4.9 1.1s4.6.5 4.6.5.7 1.2-2.3 1.2c-3 .1-7.7-.6-8.5-1-.9-.5-2.3-1.7-2.3-1.7l3.8-4.6zm-111.5-3.7s-5.3.4-6.1.6-3.5.2-2.6.7c.9.5 6 .7 5.3.9-.7.3-6 .1-6.1.5-.1.9 6 1.5 6 1.5s-5.6.3-6.1.5-.3 1.6 5 1.4c5.3-.3-4.6.4-4.6.4s-.7 1.3 2.4 1.5 7.8-.3 8.6-.8c.9-.5 2.3-1.8 2.3-1.8l-4.1-5.4zm66.4-70.7c1.3 0 6.3 1.4 6.4-2.7 0 0-.2-3.6.5-3.6.6 0 1.3-.2 1.3-.2l-.9-2.8s.5-6.5-1-6.8c0 0-6.6-4.1-11.5 1.2s-5.4 7.3-6.2 6.7c-.8-.6 2.8 5.2 2.8 5.2l-.1 10.2 6.6 4.7 2.4-2.9"/>
  <path fill="#191A38" d="M433.5 203.1c5.6.5 25.2 40.4 26.8 47 1.5 6.6 19.4 18.4 19.4 18.4l-3.6 7.2s-16.3-8.2-23.5-15.8c-7.2-7.7-12.8-22.8-12-16.4 1.6 12.4 7 41.8 7 41.8l-45.6-.1 6.9-42.6.2-8.8s-5.1 9.2-11.2 16.3c-6.1 7.2-28.6 22-28.6 22l-5.6-6.9s13.5-9.5 26.3-28.4 16.9-23.6 16.9-23.6c2.1-3.4 8.3-12.7 13.6-12.9l.2-4.7 12.5 3.7.3 3.8z"/>
  <path fill="#FFF" d="M430.8 181c.7-.1 1.4.1 2 .1 1.8 0 3.5-1 5-2.1 1.1-.8 2.3-1.8 2.8-3.1s.2-3.1-1-3.7c-1.9-1-4.4 1.1-6.3 0-.7-.4-1.1-1.1-1.7-1.5-1-.7-2.4-.5-3.3.3-.8.8-1.2 2.2-2.4 2.3-1.3.1-3.3-1.7-4.5-2.2-.9-.4-2 .2-2.6 1s-.8 1.8-1.1 2.7c-1 3.7-1.1 7.6.2 11.3.4 1.2 1.4 4.5 2.6 5 1.2.5 2.8.3 3.5-.8.9-1.3.1-5.1.3-6.7 0-.2.1-.4.2-.5.4-.4 1.1-.1 1.5.4.4.5.6.9 1.1 1.2 1.6-1.4 1-3.4 3.7-3.7z"/>
  <path fill="#101323" d="M440.9 241.8s-3.7-3.6-3 .3c.7 3.9 6.4 43.1 6.4 43.1l3.3-.1c0 .1-7.4-41.1-6.7-43.3z"/>
  <path fill="#191A38" d="M613.3 252.8s4.9 1.8 5.6 2.2c.7.3 3.2 1.1 2.3 1.2-.8.1-5.6-1.3-4.9-.9.7.4 5.5 1.8 5.6 2.1.1.7-5.6-.7-5.6-.7s5.2 1.8 5.6 2.1c.4.2.2 1.2-4.6-.6-4.9-1.7 4.3 1.6 4.3 1.6s.6 1.1-2.2.3c-2.8-.8-7.1-2.5-7.9-3.1-.8-.6-2.1-1.9-2.1-1.9l3.9-2.3z"/>
  <path fill="#F4662D" d="M556.7 182.9s19.2 9.7 27.9 25.4c8.6 15.7 26.1 39.2 30.4 41.8-1.2 5.9-3.3 9.2-3.3 9.2s-31.6-26.1-36.8-37.8c-5.2-11.7-6.1-7.7-4.1 1.1s11.5 42 11.5 42l-55.5 9s8.9-56.5 5.6-53.4c-3.2 3.1-7.2 15.7-16 22.9-8.8 7.3-20.7 10.1-20.7 10.1l-6.8-4.6s34.5-25.9 37.4-47.3c2-14.3 17.9-14.3 17.9-14.3l12.5-4.1z"/>
  <path fill="#FFF" d="M360.3 179.9h5.2v4.9h-5.2zm10.4 0h5.2v4.9h-5.2zM360.3 191h5.2v4.9h-5.2zm10.4 0h5.2v4.9h-5.2zm-10.4 11h5.2v4.9h-5.2zm10.4 0h5.2v4.9h-5.2z"/>
  <path fill="#E25A2B" d="M570.6 213.8s-8.8-3.1-5.6 7.9c3.2 11 13.2 44.3 13.2 44.3l4.7-1s-13.2-42.4-12.3-51.2z"/>
  <path fill="#F9B529" d="M432 181.8c.7-.1 1.4.1 2 .1 1.8 0 3.5-1 5-2.1 1.1-.8 2.3-1.8 2.8-3.1s.2-3.1-1-3.7c-1.9-1-4.4 1.1-6.3 0-.7-.4-1.1-1.1-1.7-1.5-1-.7-2.4-.5-3.3.3-.8.8-1.2 2.2-2.4 2.3-1.3.1-3.3-1.7-4.5-2.2-.9-.4-2 .2-2.6 1s-.8 1.8-1.1 2.7c-1 3.7-1.1 7.6.2 11.3.4 1.2 1.4 4.5 2.6 5 1.2.5 2.8.3 3.5-.8.9-1.3.1-5.1.3-6.7 0-.2.1-.4.2-.5.4-.4 1.1-.1 1.5.4.4.5.6.9 1.1 1.2 1.6-1.4 1-3.5 3.7-3.7z"/>
  <path fill="#62A39E" d="M554.6 371.7c62.4 33.3 124.5-44.4 200.6-34.8v-122c0-1.7-2.8-3.4-2.8-5.1-12.3-9.7-28.6-14.3-44.1-12.3-15.6 1.9-30.2 10.3-39.7 22.8-4.4 5.7-7.8 12.4-13.5 16.8-11.1 8.8-27 6.8-40.8 10.1-30.2 7.1-48.2 38.2-75.7 52.4-13.8 7.1-29.4 9.7-44.6 13-15.2 3.3-30.7 7.6-42.7 17.4-3.8 3.1-6.4 8.3-7.9 14.5 35.9.1 74.4 7.3 111.2 27.2z"/>
  <path fill="#77BFBB" d="M554.6 371.7c65 34.6 129.6-50.9 210-33.2V216.7c0-1.7-2.8-3.4-2.8-5.1-12.3-9.7-28.6-14.3-44.1-12.3-15.6 1.9-30.2 10.3-39.7 22.8-4.4 5.7-7.8 12.4-13.5 16.8-11.1 8.8-27 6.8-40.8 10.1-30.2 7.1-48.2 38.2-75.7 52.4-13.8 7.1-29.4 9.7-44.6 13-15.2 3.3-30.7 7.6-42.7 17.4-3.5 2.8-5.9 7.4-7.5 12.8 33 1.4 67.9 9 101.4 27.1z"/>
  <linearGradient id="e" gradientUnits="userSpaceOnUse" x1="594.04" y1="254.086" x2="673.386" y2="391.516">
    <stop offset=".236" stop-color="#77bfbb"/>
    <stop offset=".268" stop-color="#74bab6"/>
    <stop offset=".396" stop-color="#6aada8"/>
    <stop offset=".555" stop-color="#64a5a0"/>
    <stop offset=".84" stop-color="#62a39e"/>
  </linearGradient>
  <path opacity=".89" fill="url(#e)" d="M554.6 371.7c65.1 34.7 129.8-51.2 210.4-33.1V216.7c0-1.7-2.8-3.4-2.8-5.1-12.3-9.7-28.6-14.3-44.1-12.3-15.6 1.9-30.2 10.3-39.7 22.8-4.4 5.7-7.8 12.4-13.5 16.8-11.1 8.8-27 6.8-40.8 10.1-30.2 7.1-48.2 38.2-75.7 52.4-13.8 7.1-29.4 9.7-44.6 13-15.2 3.3-30.7 7.6-42.7 17.4-3.5 2.8-5.9 7.4-7.5 12.8 33 1.5 67.7 9.1 101 27.1z"/>
  <linearGradient id="f" gradientUnits="userSpaceOnUse" x1="203.215" y1="322.376" x2="686.22" y2="322.376">
    <stop offset=".001" stop-color="#191a38"/>
    <stop offset=".215" stop-color="#191a3e"/>
    <stop offset=".498" stop-color="#191a4f"/>
    <stop offset=".583" stop-color="#191a55"/>
  </linearGradient>
  <path fill="url(#f)" d="M217 397.4c8.6 1.7 18 1.9 28.6 0 9.9-1.7 20.7-5.2 32.9-10.7 0 0 13.3-7.5 35.3-16.3 51.6-20.4 151.1-47.3 240.8 1.3 42.5 22.7 84.9-6.1 131.6-23.8V246l-483 96.9v50.2c4.4 1.9 8.9 3.4 13.8 4.3z"/>
  <path fill="#F9B529" d="M414.2 345.7c3.6-11.3 10-35.9 10-35.9l8.5 34.8c8.6-.3 17.4-.2 26.3.4-.4-3.9-.8-6.7-.9-7.6-.6-4.6-10.9-54-10.9-54l-43.1-1.1s-10.5 55.1-16.3 67.1c8.5-1.6 17.3-2.8 26.4-3.7z"/>
  <path fill="#EAA11F" d="M432.4 344.6c.7 0 1.3 0 2-.1-1.5-8.8-2.9-16.8-3.2-17.8-.7-2.4-4.2-18.7-6.5-20.9-2.3-2.2-.6 5.8-.6 5.8l8.3 33z"/>
  <path fill="#FFF" d="M600.5 285.2h5.2v13.7h-5.2zm-10.4 0h5.2v13.7h-5.2z"/>
  <path fill="#101323" d="M695.3 344.7v-92.3l-9.1-6.4-.2 102c3.1-1.2 6.2-2.3 9.3-3.3z"/>
</svg>
